<mxfile host="app.diagrams.net" agent="Mozilla/5.0 (Windows NT 10.0; Win64; x64) AppleWebKit/537.36 (KHTML, like Gecko) Chrome/134.0.0.0 Safari/537.36" version="26.1.1">
  <diagram name="Page-1" id="ATd_FimBphq1Lc-aRG-b">
    <mxGraphModel dx="2074" dy="1132" grid="0" gridSize="10" guides="1" tooltips="1" connect="1" arrows="1" fold="1" page="1" pageScale="1" pageWidth="1169" pageHeight="827" math="0" shadow="0">
      <root>
        <mxCell id="0" />
        <mxCell id="1" parent="0" />
        <mxCell id="IM9ix_mjp3S93p6cJgH1-1" value="STUDENTS" style="shape=table;startSize=25;container=1;collapsible=0;childLayout=tableLayout;fixedRows=1;rowLines=1;fontStyle=1;align=center;resizeLast=1;labelBackgroundColor=none;fillColor=#A8DADC;strokeColor=#457B9D;fontColor=#1D3557;" parent="1" vertex="1">
          <mxGeometry x="20" y="554" width="298" height="245" as="geometry" />
        </mxCell>
        <mxCell id="IM9ix_mjp3S93p6cJgH1-2" style="shape=tableRow;horizontal=0;startSize=0;swimlaneHead=0;swimlaneBody=0;fillColor=none;collapsible=0;dropTarget=0;points=[[0,0.5],[1,0.5]];portConstraint=eastwest;top=0;left=0;right=0;bottom=0;labelBackgroundColor=none;strokeColor=#457B9D;fontColor=#1D3557;" parent="IM9ix_mjp3S93p6cJgH1-1" vertex="1">
          <mxGeometry y="25" width="298" height="22" as="geometry" />
        </mxCell>
        <mxCell id="IM9ix_mjp3S93p6cJgH1-3" value="int" style="shape=partialRectangle;connectable=0;fillColor=none;top=0;left=0;bottom=0;right=0;align=left;spacingLeft=2;overflow=hidden;fontSize=11;labelBackgroundColor=none;strokeColor=#457B9D;fontColor=#1D3557;" parent="IM9ix_mjp3S93p6cJgH1-2" vertex="1">
          <mxGeometry width="42" height="22" as="geometry">
            <mxRectangle width="42" height="22" as="alternateBounds" />
          </mxGeometry>
        </mxCell>
        <mxCell id="IM9ix_mjp3S93p6cJgH1-4" value="student_id" style="shape=partialRectangle;connectable=0;fillColor=none;top=0;left=0;bottom=0;right=0;align=left;spacingLeft=2;overflow=hidden;fontSize=11;labelBackgroundColor=none;strokeColor=#457B9D;fontColor=#1D3557;" parent="IM9ix_mjp3S93p6cJgH1-2" vertex="1">
          <mxGeometry x="42" width="120" height="22" as="geometry">
            <mxRectangle width="120" height="22" as="alternateBounds" />
          </mxGeometry>
        </mxCell>
        <mxCell id="IM9ix_mjp3S93p6cJgH1-5" value="PK" style="shape=partialRectangle;connectable=0;fillColor=none;top=0;left=0;bottom=0;right=0;align=left;spacingLeft=2;overflow=hidden;fontSize=11;labelBackgroundColor=none;strokeColor=#457B9D;fontColor=#1D3557;" parent="IM9ix_mjp3S93p6cJgH1-2" vertex="1">
          <mxGeometry x="162" width="22" height="22" as="geometry">
            <mxRectangle width="22" height="22" as="alternateBounds" />
          </mxGeometry>
        </mxCell>
        <mxCell id="IM9ix_mjp3S93p6cJgH1-6" value="" style="shape=partialRectangle;connectable=0;fillColor=none;top=0;left=0;bottom=0;right=0;align=left;spacingLeft=2;overflow=hidden;fontSize=11;labelBackgroundColor=none;strokeColor=#457B9D;fontColor=#1D3557;" parent="IM9ix_mjp3S93p6cJgH1-2" vertex="1">
          <mxGeometry x="184" width="114" height="22" as="geometry">
            <mxRectangle width="114" height="22" as="alternateBounds" />
          </mxGeometry>
        </mxCell>
        <mxCell id="IM9ix_mjp3S93p6cJgH1-7" style="shape=tableRow;horizontal=0;startSize=0;swimlaneHead=0;swimlaneBody=0;fillColor=none;collapsible=0;dropTarget=0;points=[[0,0.5],[1,0.5]];portConstraint=eastwest;top=0;left=0;right=0;bottom=0;labelBackgroundColor=none;strokeColor=#457B9D;fontColor=#1D3557;" parent="IM9ix_mjp3S93p6cJgH1-1" vertex="1">
          <mxGeometry y="47" width="298" height="22" as="geometry" />
        </mxCell>
        <mxCell id="IM9ix_mjp3S93p6cJgH1-8" value="string" style="shape=partialRectangle;connectable=0;fillColor=none;top=0;left=0;bottom=0;right=0;align=left;spacingLeft=2;overflow=hidden;fontSize=11;labelBackgroundColor=none;strokeColor=#457B9D;fontColor=#1D3557;" parent="IM9ix_mjp3S93p6cJgH1-7" vertex="1">
          <mxGeometry width="42" height="22" as="geometry">
            <mxRectangle width="42" height="22" as="alternateBounds" />
          </mxGeometry>
        </mxCell>
        <mxCell id="IM9ix_mjp3S93p6cJgH1-9" value="name" style="shape=partialRectangle;connectable=0;fillColor=none;top=0;left=0;bottom=0;right=0;align=left;spacingLeft=2;overflow=hidden;fontSize=11;labelBackgroundColor=none;strokeColor=#457B9D;fontColor=#1D3557;" parent="IM9ix_mjp3S93p6cJgH1-7" vertex="1">
          <mxGeometry x="42" width="120" height="22" as="geometry">
            <mxRectangle width="120" height="22" as="alternateBounds" />
          </mxGeometry>
        </mxCell>
        <mxCell id="IM9ix_mjp3S93p6cJgH1-10" value="" style="shape=partialRectangle;connectable=0;fillColor=none;top=0;left=0;bottom=0;right=0;align=left;spacingLeft=2;overflow=hidden;fontSize=11;labelBackgroundColor=none;strokeColor=#457B9D;fontColor=#1D3557;" parent="IM9ix_mjp3S93p6cJgH1-7" vertex="1">
          <mxGeometry x="162" width="22" height="22" as="geometry">
            <mxRectangle width="22" height="22" as="alternateBounds" />
          </mxGeometry>
        </mxCell>
        <mxCell id="IM9ix_mjp3S93p6cJgH1-11" value="" style="shape=partialRectangle;connectable=0;fillColor=none;top=0;left=0;bottom=0;right=0;align=left;spacingLeft=2;overflow=hidden;fontSize=11;labelBackgroundColor=none;strokeColor=#457B9D;fontColor=#1D3557;" parent="IM9ix_mjp3S93p6cJgH1-7" vertex="1">
          <mxGeometry x="184" width="114" height="22" as="geometry">
            <mxRectangle width="114" height="22" as="alternateBounds" />
          </mxGeometry>
        </mxCell>
        <mxCell id="IM9ix_mjp3S93p6cJgH1-12" style="shape=tableRow;horizontal=0;startSize=0;swimlaneHead=0;swimlaneBody=0;fillColor=none;collapsible=0;dropTarget=0;points=[[0,0.5],[1,0.5]];portConstraint=eastwest;top=0;left=0;right=0;bottom=0;labelBackgroundColor=none;strokeColor=#457B9D;fontColor=#1D3557;" parent="IM9ix_mjp3S93p6cJgH1-1" vertex="1">
          <mxGeometry y="69" width="298" height="22" as="geometry" />
        </mxCell>
        <mxCell id="IM9ix_mjp3S93p6cJgH1-13" value="date" style="shape=partialRectangle;connectable=0;fillColor=none;top=0;left=0;bottom=0;right=0;align=left;spacingLeft=2;overflow=hidden;fontSize=11;labelBackgroundColor=none;strokeColor=#457B9D;fontColor=#1D3557;" parent="IM9ix_mjp3S93p6cJgH1-12" vertex="1">
          <mxGeometry width="42" height="22" as="geometry">
            <mxRectangle width="42" height="22" as="alternateBounds" />
          </mxGeometry>
        </mxCell>
        <mxCell id="IM9ix_mjp3S93p6cJgH1-14" value="dob" style="shape=partialRectangle;connectable=0;fillColor=none;top=0;left=0;bottom=0;right=0;align=left;spacingLeft=2;overflow=hidden;fontSize=11;labelBackgroundColor=none;strokeColor=#457B9D;fontColor=#1D3557;" parent="IM9ix_mjp3S93p6cJgH1-12" vertex="1">
          <mxGeometry x="42" width="120" height="22" as="geometry">
            <mxRectangle width="120" height="22" as="alternateBounds" />
          </mxGeometry>
        </mxCell>
        <mxCell id="IM9ix_mjp3S93p6cJgH1-15" value="" style="shape=partialRectangle;connectable=0;fillColor=none;top=0;left=0;bottom=0;right=0;align=left;spacingLeft=2;overflow=hidden;fontSize=11;labelBackgroundColor=none;strokeColor=#457B9D;fontColor=#1D3557;" parent="IM9ix_mjp3S93p6cJgH1-12" vertex="1">
          <mxGeometry x="162" width="22" height="22" as="geometry">
            <mxRectangle width="22" height="22" as="alternateBounds" />
          </mxGeometry>
        </mxCell>
        <mxCell id="IM9ix_mjp3S93p6cJgH1-16" value="" style="shape=partialRectangle;connectable=0;fillColor=none;top=0;left=0;bottom=0;right=0;align=left;spacingLeft=2;overflow=hidden;fontSize=11;labelBackgroundColor=none;strokeColor=#457B9D;fontColor=#1D3557;" parent="IM9ix_mjp3S93p6cJgH1-12" vertex="1">
          <mxGeometry x="184" width="114" height="22" as="geometry">
            <mxRectangle width="114" height="22" as="alternateBounds" />
          </mxGeometry>
        </mxCell>
        <mxCell id="IM9ix_mjp3S93p6cJgH1-17" style="shape=tableRow;horizontal=0;startSize=0;swimlaneHead=0;swimlaneBody=0;fillColor=none;collapsible=0;dropTarget=0;points=[[0,0.5],[1,0.5]];portConstraint=eastwest;top=0;left=0;right=0;bottom=0;labelBackgroundColor=none;strokeColor=#457B9D;fontColor=#1D3557;" parent="IM9ix_mjp3S93p6cJgH1-1" vertex="1">
          <mxGeometry y="91" width="298" height="22" as="geometry" />
        </mxCell>
        <mxCell id="IM9ix_mjp3S93p6cJgH1-18" value="string" style="shape=partialRectangle;connectable=0;fillColor=none;top=0;left=0;bottom=0;right=0;align=left;spacingLeft=2;overflow=hidden;fontSize=11;labelBackgroundColor=none;strokeColor=#457B9D;fontColor=#1D3557;" parent="IM9ix_mjp3S93p6cJgH1-17" vertex="1">
          <mxGeometry width="42" height="22" as="geometry">
            <mxRectangle width="42" height="22" as="alternateBounds" />
          </mxGeometry>
        </mxCell>
        <mxCell id="IM9ix_mjp3S93p6cJgH1-19" value="contact_info" style="shape=partialRectangle;connectable=0;fillColor=none;top=0;left=0;bottom=0;right=0;align=left;spacingLeft=2;overflow=hidden;fontSize=11;labelBackgroundColor=none;strokeColor=#457B9D;fontColor=#1D3557;" parent="IM9ix_mjp3S93p6cJgH1-17" vertex="1">
          <mxGeometry x="42" width="120" height="22" as="geometry">
            <mxRectangle width="120" height="22" as="alternateBounds" />
          </mxGeometry>
        </mxCell>
        <mxCell id="IM9ix_mjp3S93p6cJgH1-20" value="" style="shape=partialRectangle;connectable=0;fillColor=none;top=0;left=0;bottom=0;right=0;align=left;spacingLeft=2;overflow=hidden;fontSize=11;labelBackgroundColor=none;strokeColor=#457B9D;fontColor=#1D3557;" parent="IM9ix_mjp3S93p6cJgH1-17" vertex="1">
          <mxGeometry x="162" width="22" height="22" as="geometry">
            <mxRectangle width="22" height="22" as="alternateBounds" />
          </mxGeometry>
        </mxCell>
        <mxCell id="IM9ix_mjp3S93p6cJgH1-21" value="" style="shape=partialRectangle;connectable=0;fillColor=none;top=0;left=0;bottom=0;right=0;align=left;spacingLeft=2;overflow=hidden;fontSize=11;labelBackgroundColor=none;strokeColor=#457B9D;fontColor=#1D3557;" parent="IM9ix_mjp3S93p6cJgH1-17" vertex="1">
          <mxGeometry x="184" width="114" height="22" as="geometry">
            <mxRectangle width="114" height="22" as="alternateBounds" />
          </mxGeometry>
        </mxCell>
        <mxCell id="IM9ix_mjp3S93p6cJgH1-22" style="shape=tableRow;horizontal=0;startSize=0;swimlaneHead=0;swimlaneBody=0;fillColor=none;collapsible=0;dropTarget=0;points=[[0,0.5],[1,0.5]];portConstraint=eastwest;top=0;left=0;right=0;bottom=0;labelBackgroundColor=none;strokeColor=#457B9D;fontColor=#1D3557;" parent="IM9ix_mjp3S93p6cJgH1-1" vertex="1">
          <mxGeometry y="113" width="298" height="22" as="geometry" />
        </mxCell>
        <mxCell id="IM9ix_mjp3S93p6cJgH1-23" value="string" style="shape=partialRectangle;connectable=0;fillColor=none;top=0;left=0;bottom=0;right=0;align=left;spacingLeft=2;overflow=hidden;fontSize=11;labelBackgroundColor=none;strokeColor=#457B9D;fontColor=#1D3557;" parent="IM9ix_mjp3S93p6cJgH1-22" vertex="1">
          <mxGeometry width="42" height="22" as="geometry">
            <mxRectangle width="42" height="22" as="alternateBounds" />
          </mxGeometry>
        </mxCell>
        <mxCell id="IM9ix_mjp3S93p6cJgH1-24" value="program_id" style="shape=partialRectangle;connectable=0;fillColor=none;top=0;left=0;bottom=0;right=0;align=left;spacingLeft=2;overflow=hidden;fontSize=11;labelBackgroundColor=none;strokeColor=#457B9D;fontColor=#1D3557;" parent="IM9ix_mjp3S93p6cJgH1-22" vertex="1">
          <mxGeometry x="42" width="120" height="22" as="geometry">
            <mxRectangle width="120" height="22" as="alternateBounds" />
          </mxGeometry>
        </mxCell>
        <mxCell id="IM9ix_mjp3S93p6cJgH1-25" value="FK" style="shape=partialRectangle;connectable=0;fillColor=none;top=0;left=0;bottom=0;right=0;align=left;spacingLeft=2;overflow=hidden;fontSize=11;labelBackgroundColor=none;strokeColor=#457B9D;fontColor=#1D3557;" parent="IM9ix_mjp3S93p6cJgH1-22" vertex="1">
          <mxGeometry x="162" width="22" height="22" as="geometry">
            <mxRectangle width="22" height="22" as="alternateBounds" />
          </mxGeometry>
        </mxCell>
        <mxCell id="IM9ix_mjp3S93p6cJgH1-26" value="Program enrolled in" style="shape=partialRectangle;connectable=0;fillColor=none;top=0;left=0;bottom=0;right=0;align=left;spacingLeft=2;overflow=hidden;fontSize=11;labelBackgroundColor=none;strokeColor=#457B9D;fontColor=#1D3557;" parent="IM9ix_mjp3S93p6cJgH1-22" vertex="1">
          <mxGeometry x="184" width="114" height="22" as="geometry">
            <mxRectangle width="114" height="22" as="alternateBounds" />
          </mxGeometry>
        </mxCell>
        <mxCell id="IM9ix_mjp3S93p6cJgH1-27" style="shape=tableRow;horizontal=0;startSize=0;swimlaneHead=0;swimlaneBody=0;fillColor=none;collapsible=0;dropTarget=0;points=[[0,0.5],[1,0.5]];portConstraint=eastwest;top=0;left=0;right=0;bottom=0;labelBackgroundColor=none;strokeColor=#457B9D;fontColor=#1D3557;" parent="IM9ix_mjp3S93p6cJgH1-1" vertex="1">
          <mxGeometry y="135" width="298" height="22" as="geometry" />
        </mxCell>
        <mxCell id="IM9ix_mjp3S93p6cJgH1-28" value="int" style="shape=partialRectangle;connectable=0;fillColor=none;top=0;left=0;bottom=0;right=0;align=left;spacingLeft=2;overflow=hidden;fontSize=11;labelBackgroundColor=none;strokeColor=#457B9D;fontColor=#1D3557;" parent="IM9ix_mjp3S93p6cJgH1-27" vertex="1">
          <mxGeometry width="42" height="22" as="geometry">
            <mxRectangle width="42" height="22" as="alternateBounds" />
          </mxGeometry>
        </mxCell>
        <mxCell id="IM9ix_mjp3S93p6cJgH1-29" value="year_of_study" style="shape=partialRectangle;connectable=0;fillColor=none;top=0;left=0;bottom=0;right=0;align=left;spacingLeft=2;overflow=hidden;fontSize=11;labelBackgroundColor=none;strokeColor=#457B9D;fontColor=#1D3557;" parent="IM9ix_mjp3S93p6cJgH1-27" vertex="1">
          <mxGeometry x="42" width="120" height="22" as="geometry">
            <mxRectangle width="120" height="22" as="alternateBounds" />
          </mxGeometry>
        </mxCell>
        <mxCell id="IM9ix_mjp3S93p6cJgH1-30" value="" style="shape=partialRectangle;connectable=0;fillColor=none;top=0;left=0;bottom=0;right=0;align=left;spacingLeft=2;overflow=hidden;fontSize=11;labelBackgroundColor=none;strokeColor=#457B9D;fontColor=#1D3557;" parent="IM9ix_mjp3S93p6cJgH1-27" vertex="1">
          <mxGeometry x="162" width="22" height="22" as="geometry">
            <mxRectangle width="22" height="22" as="alternateBounds" />
          </mxGeometry>
        </mxCell>
        <mxCell id="IM9ix_mjp3S93p6cJgH1-31" value="" style="shape=partialRectangle;connectable=0;fillColor=none;top=0;left=0;bottom=0;right=0;align=left;spacingLeft=2;overflow=hidden;fontSize=11;labelBackgroundColor=none;strokeColor=#457B9D;fontColor=#1D3557;" parent="IM9ix_mjp3S93p6cJgH1-27" vertex="1">
          <mxGeometry x="184" width="114" height="22" as="geometry">
            <mxRectangle width="114" height="22" as="alternateBounds" />
          </mxGeometry>
        </mxCell>
        <mxCell id="IM9ix_mjp3S93p6cJgH1-32" style="shape=tableRow;horizontal=0;startSize=0;swimlaneHead=0;swimlaneBody=0;fillColor=none;collapsible=0;dropTarget=0;points=[[0,0.5],[1,0.5]];portConstraint=eastwest;top=0;left=0;right=0;bottom=0;labelBackgroundColor=none;strokeColor=#457B9D;fontColor=#1D3557;" parent="IM9ix_mjp3S93p6cJgH1-1" vertex="1">
          <mxGeometry y="157" width="298" height="22" as="geometry" />
        </mxCell>
        <mxCell id="IM9ix_mjp3S93p6cJgH1-33" value="decimal" style="shape=partialRectangle;connectable=0;fillColor=none;top=0;left=0;bottom=0;right=0;align=left;spacingLeft=2;overflow=hidden;fontSize=11;labelBackgroundColor=none;strokeColor=#457B9D;fontColor=#1D3557;" parent="IM9ix_mjp3S93p6cJgH1-32" vertex="1">
          <mxGeometry width="42" height="22" as="geometry">
            <mxRectangle width="42" height="22" as="alternateBounds" />
          </mxGeometry>
        </mxCell>
        <mxCell id="IM9ix_mjp3S93p6cJgH1-34" value="current_grades" style="shape=partialRectangle;connectable=0;fillColor=none;top=0;left=0;bottom=0;right=0;align=left;spacingLeft=2;overflow=hidden;fontSize=11;labelBackgroundColor=none;strokeColor=#457B9D;fontColor=#1D3557;" parent="IM9ix_mjp3S93p6cJgH1-32" vertex="1">
          <mxGeometry x="42" width="120" height="22" as="geometry">
            <mxRectangle width="120" height="22" as="alternateBounds" />
          </mxGeometry>
        </mxCell>
        <mxCell id="IM9ix_mjp3S93p6cJgH1-35" value="" style="shape=partialRectangle;connectable=0;fillColor=none;top=0;left=0;bottom=0;right=0;align=left;spacingLeft=2;overflow=hidden;fontSize=11;labelBackgroundColor=none;strokeColor=#457B9D;fontColor=#1D3557;" parent="IM9ix_mjp3S93p6cJgH1-32" vertex="1">
          <mxGeometry x="162" width="22" height="22" as="geometry">
            <mxRectangle width="22" height="22" as="alternateBounds" />
          </mxGeometry>
        </mxCell>
        <mxCell id="IM9ix_mjp3S93p6cJgH1-36" value="" style="shape=partialRectangle;connectable=0;fillColor=none;top=0;left=0;bottom=0;right=0;align=left;spacingLeft=2;overflow=hidden;fontSize=11;labelBackgroundColor=none;strokeColor=#457B9D;fontColor=#1D3557;" parent="IM9ix_mjp3S93p6cJgH1-32" vertex="1">
          <mxGeometry x="184" width="114" height="22" as="geometry">
            <mxRectangle width="114" height="22" as="alternateBounds" />
          </mxGeometry>
        </mxCell>
        <mxCell id="IM9ix_mjp3S93p6cJgH1-37" style="shape=tableRow;horizontal=0;startSize=0;swimlaneHead=0;swimlaneBody=0;fillColor=none;collapsible=0;dropTarget=0;points=[[0,0.5],[1,0.5]];portConstraint=eastwest;top=0;left=0;right=0;bottom=0;labelBackgroundColor=none;strokeColor=#457B9D;fontColor=#1D3557;" parent="IM9ix_mjp3S93p6cJgH1-1" vertex="1">
          <mxGeometry y="179" width="298" height="22" as="geometry" />
        </mxCell>
        <mxCell id="IM9ix_mjp3S93p6cJgH1-38" value="string" style="shape=partialRectangle;connectable=0;fillColor=none;top=0;left=0;bottom=0;right=0;align=left;spacingLeft=2;overflow=hidden;fontSize=11;labelBackgroundColor=none;strokeColor=#457B9D;fontColor=#1D3557;" parent="IM9ix_mjp3S93p6cJgH1-37" vertex="1">
          <mxGeometry width="42" height="22" as="geometry">
            <mxRectangle width="42" height="22" as="alternateBounds" />
          </mxGeometry>
        </mxCell>
        <mxCell id="IM9ix_mjp3S93p6cJgH1-39" value="graduation_status" style="shape=partialRectangle;connectable=0;fillColor=none;top=0;left=0;bottom=0;right=0;align=left;spacingLeft=2;overflow=hidden;fontSize=11;labelBackgroundColor=none;strokeColor=#457B9D;fontColor=#1D3557;" parent="IM9ix_mjp3S93p6cJgH1-37" vertex="1">
          <mxGeometry x="42" width="120" height="22" as="geometry">
            <mxRectangle width="120" height="22" as="alternateBounds" />
          </mxGeometry>
        </mxCell>
        <mxCell id="IM9ix_mjp3S93p6cJgH1-40" value="" style="shape=partialRectangle;connectable=0;fillColor=none;top=0;left=0;bottom=0;right=0;align=left;spacingLeft=2;overflow=hidden;fontSize=11;labelBackgroundColor=none;strokeColor=#457B9D;fontColor=#1D3557;" parent="IM9ix_mjp3S93p6cJgH1-37" vertex="1">
          <mxGeometry x="162" width="22" height="22" as="geometry">
            <mxRectangle width="22" height="22" as="alternateBounds" />
          </mxGeometry>
        </mxCell>
        <mxCell id="IM9ix_mjp3S93p6cJgH1-41" value="" style="shape=partialRectangle;connectable=0;fillColor=none;top=0;left=0;bottom=0;right=0;align=left;spacingLeft=2;overflow=hidden;fontSize=11;labelBackgroundColor=none;strokeColor=#457B9D;fontColor=#1D3557;" parent="IM9ix_mjp3S93p6cJgH1-37" vertex="1">
          <mxGeometry x="184" width="114" height="22" as="geometry">
            <mxRectangle width="114" height="22" as="alternateBounds" />
          </mxGeometry>
        </mxCell>
        <mxCell id="IM9ix_mjp3S93p6cJgH1-42" style="shape=tableRow;horizontal=0;startSize=0;swimlaneHead=0;swimlaneBody=0;fillColor=none;collapsible=0;dropTarget=0;points=[[0,0.5],[1,0.5]];portConstraint=eastwest;top=0;left=0;right=0;bottom=0;labelBackgroundColor=none;strokeColor=#457B9D;fontColor=#1D3557;" parent="IM9ix_mjp3S93p6cJgH1-1" vertex="1">
          <mxGeometry y="201" width="298" height="22" as="geometry" />
        </mxCell>
        <mxCell id="IM9ix_mjp3S93p6cJgH1-43" value="string" style="shape=partialRectangle;connectable=0;fillColor=none;top=0;left=0;bottom=0;right=0;align=left;spacingLeft=2;overflow=hidden;fontSize=11;labelBackgroundColor=none;strokeColor=#457B9D;fontColor=#1D3557;" parent="IM9ix_mjp3S93p6cJgH1-42" vertex="1">
          <mxGeometry width="42" height="22" as="geometry">
            <mxRectangle width="42" height="22" as="alternateBounds" />
          </mxGeometry>
        </mxCell>
        <mxCell id="IM9ix_mjp3S93p6cJgH1-44" value="disciplinary_records" style="shape=partialRectangle;connectable=0;fillColor=none;top=0;left=0;bottom=0;right=0;align=left;spacingLeft=2;overflow=hidden;fontSize=11;labelBackgroundColor=none;strokeColor=#457B9D;fontColor=#1D3557;" parent="IM9ix_mjp3S93p6cJgH1-42" vertex="1">
          <mxGeometry x="42" width="120" height="22" as="geometry">
            <mxRectangle width="120" height="22" as="alternateBounds" />
          </mxGeometry>
        </mxCell>
        <mxCell id="IM9ix_mjp3S93p6cJgH1-45" value="" style="shape=partialRectangle;connectable=0;fillColor=none;top=0;left=0;bottom=0;right=0;align=left;spacingLeft=2;overflow=hidden;fontSize=11;labelBackgroundColor=none;strokeColor=#457B9D;fontColor=#1D3557;" parent="IM9ix_mjp3S93p6cJgH1-42" vertex="1">
          <mxGeometry x="162" width="22" height="22" as="geometry">
            <mxRectangle width="22" height="22" as="alternateBounds" />
          </mxGeometry>
        </mxCell>
        <mxCell id="IM9ix_mjp3S93p6cJgH1-46" value="" style="shape=partialRectangle;connectable=0;fillColor=none;top=0;left=0;bottom=0;right=0;align=left;spacingLeft=2;overflow=hidden;fontSize=11;labelBackgroundColor=none;strokeColor=#457B9D;fontColor=#1D3557;" parent="IM9ix_mjp3S93p6cJgH1-42" vertex="1">
          <mxGeometry x="184" width="114" height="22" as="geometry">
            <mxRectangle width="114" height="22" as="alternateBounds" />
          </mxGeometry>
        </mxCell>
        <mxCell id="IM9ix_mjp3S93p6cJgH1-47" style="shape=tableRow;horizontal=0;startSize=0;swimlaneHead=0;swimlaneBody=0;fillColor=none;collapsible=0;dropTarget=0;points=[[0,0.5],[1,0.5]];portConstraint=eastwest;top=0;left=0;right=0;bottom=0;labelBackgroundColor=none;strokeColor=#457B9D;fontColor=#1D3557;" parent="IM9ix_mjp3S93p6cJgH1-1" vertex="1">
          <mxGeometry y="223" width="298" height="22" as="geometry" />
        </mxCell>
        <mxCell id="IM9ix_mjp3S93p6cJgH1-48" value="int" style="shape=partialRectangle;connectable=0;fillColor=none;top=0;left=0;bottom=0;right=0;align=left;spacingLeft=2;overflow=hidden;fontSize=11;labelBackgroundColor=none;strokeColor=#457B9D;fontColor=#1D3557;" parent="IM9ix_mjp3S93p6cJgH1-47" vertex="1">
          <mxGeometry width="42" height="22" as="geometry">
            <mxRectangle width="42" height="22" as="alternateBounds" />
          </mxGeometry>
        </mxCell>
        <mxCell id="IM9ix_mjp3S93p6cJgH1-49" value="advisor_id" style="shape=partialRectangle;connectable=0;fillColor=none;top=0;left=0;bottom=0;right=0;align=left;spacingLeft=2;overflow=hidden;fontSize=11;labelBackgroundColor=none;strokeColor=#457B9D;fontColor=#1D3557;" parent="IM9ix_mjp3S93p6cJgH1-47" vertex="1">
          <mxGeometry x="42" width="120" height="22" as="geometry">
            <mxRectangle width="120" height="22" as="alternateBounds" />
          </mxGeometry>
        </mxCell>
        <mxCell id="IM9ix_mjp3S93p6cJgH1-50" value="FK" style="shape=partialRectangle;connectable=0;fillColor=none;top=0;left=0;bottom=0;right=0;align=left;spacingLeft=2;overflow=hidden;fontSize=11;labelBackgroundColor=none;strokeColor=#457B9D;fontColor=#1D3557;" parent="IM9ix_mjp3S93p6cJgH1-47" vertex="1">
          <mxGeometry x="162" width="22" height="22" as="geometry">
            <mxRectangle width="22" height="22" as="alternateBounds" />
          </mxGeometry>
        </mxCell>
        <mxCell id="IM9ix_mjp3S93p6cJgH1-51" value="Faculty Advisor" style="shape=partialRectangle;connectable=0;fillColor=none;top=0;left=0;bottom=0;right=0;align=left;spacingLeft=2;overflow=hidden;fontSize=11;labelBackgroundColor=none;strokeColor=#457B9D;fontColor=#1D3557;" parent="IM9ix_mjp3S93p6cJgH1-47" vertex="1">
          <mxGeometry x="184" width="114" height="22" as="geometry">
            <mxRectangle width="114" height="22" as="alternateBounds" />
          </mxGeometry>
        </mxCell>
        <mxCell id="IM9ix_mjp3S93p6cJgH1-52" value="LECTURERS" style="shape=table;startSize=25;container=1;collapsible=0;childLayout=tableLayout;fixedRows=1;rowLines=1;fontStyle=1;align=center;resizeLast=1;labelBackgroundColor=none;fillColor=#A8DADC;strokeColor=#457B9D;fontColor=#1D3557;" parent="1" vertex="1">
          <mxGeometry x="676" y="232" width="196" height="223" as="geometry" />
        </mxCell>
        <mxCell id="IM9ix_mjp3S93p6cJgH1-53" style="shape=tableRow;horizontal=0;startSize=0;swimlaneHead=0;swimlaneBody=0;fillColor=none;collapsible=0;dropTarget=0;points=[[0,0.5],[1,0.5]];portConstraint=eastwest;top=0;left=0;right=0;bottom=0;labelBackgroundColor=none;strokeColor=#457B9D;fontColor=#1D3557;" parent="IM9ix_mjp3S93p6cJgH1-52" vertex="1">
          <mxGeometry y="25" width="196" height="22" as="geometry" />
        </mxCell>
        <mxCell id="IM9ix_mjp3S93p6cJgH1-54" value="int" style="shape=partialRectangle;connectable=0;fillColor=none;top=0;left=0;bottom=0;right=0;align=left;spacingLeft=2;overflow=hidden;fontSize=11;labelBackgroundColor=none;strokeColor=#457B9D;fontColor=#1D3557;" parent="IM9ix_mjp3S93p6cJgH1-53" vertex="1">
          <mxGeometry width="36" height="22" as="geometry">
            <mxRectangle width="36" height="22" as="alternateBounds" />
          </mxGeometry>
        </mxCell>
        <mxCell id="IM9ix_mjp3S93p6cJgH1-55" value="lecturer_id" style="shape=partialRectangle;connectable=0;fillColor=none;top=0;left=0;bottom=0;right=0;align=left;spacingLeft=2;overflow=hidden;fontSize=11;labelBackgroundColor=none;strokeColor=#457B9D;fontColor=#1D3557;" parent="IM9ix_mjp3S93p6cJgH1-53" vertex="1">
          <mxGeometry x="36" width="138" height="22" as="geometry">
            <mxRectangle width="138" height="22" as="alternateBounds" />
          </mxGeometry>
        </mxCell>
        <mxCell id="IM9ix_mjp3S93p6cJgH1-56" value="PK" style="shape=partialRectangle;connectable=0;fillColor=none;top=0;left=0;bottom=0;right=0;align=left;spacingLeft=2;overflow=hidden;fontSize=11;labelBackgroundColor=none;strokeColor=#457B9D;fontColor=#1D3557;" parent="IM9ix_mjp3S93p6cJgH1-53" vertex="1">
          <mxGeometry x="174" width="22" height="22" as="geometry">
            <mxRectangle width="22" height="22" as="alternateBounds" />
          </mxGeometry>
        </mxCell>
        <mxCell id="IM9ix_mjp3S93p6cJgH1-57" style="shape=tableRow;horizontal=0;startSize=0;swimlaneHead=0;swimlaneBody=0;fillColor=none;collapsible=0;dropTarget=0;points=[[0,0.5],[1,0.5]];portConstraint=eastwest;top=0;left=0;right=0;bottom=0;labelBackgroundColor=none;strokeColor=#457B9D;fontColor=#1D3557;" parent="IM9ix_mjp3S93p6cJgH1-52" vertex="1">
          <mxGeometry y="47" width="196" height="22" as="geometry" />
        </mxCell>
        <mxCell id="IM9ix_mjp3S93p6cJgH1-58" value="string" style="shape=partialRectangle;connectable=0;fillColor=none;top=0;left=0;bottom=0;right=0;align=left;spacingLeft=2;overflow=hidden;fontSize=11;labelBackgroundColor=none;strokeColor=#457B9D;fontColor=#1D3557;" parent="IM9ix_mjp3S93p6cJgH1-57" vertex="1">
          <mxGeometry width="36" height="22" as="geometry">
            <mxRectangle width="36" height="22" as="alternateBounds" />
          </mxGeometry>
        </mxCell>
        <mxCell id="IM9ix_mjp3S93p6cJgH1-59" value="name" style="shape=partialRectangle;connectable=0;fillColor=none;top=0;left=0;bottom=0;right=0;align=left;spacingLeft=2;overflow=hidden;fontSize=11;labelBackgroundColor=none;strokeColor=#457B9D;fontColor=#1D3557;" parent="IM9ix_mjp3S93p6cJgH1-57" vertex="1">
          <mxGeometry x="36" width="138" height="22" as="geometry">
            <mxRectangle width="138" height="22" as="alternateBounds" />
          </mxGeometry>
        </mxCell>
        <mxCell id="IM9ix_mjp3S93p6cJgH1-60" value="" style="shape=partialRectangle;connectable=0;fillColor=none;top=0;left=0;bottom=0;right=0;align=left;spacingLeft=2;overflow=hidden;fontSize=11;labelBackgroundColor=none;strokeColor=#457B9D;fontColor=#1D3557;" parent="IM9ix_mjp3S93p6cJgH1-57" vertex="1">
          <mxGeometry x="174" width="22" height="22" as="geometry">
            <mxRectangle width="22" height="22" as="alternateBounds" />
          </mxGeometry>
        </mxCell>
        <mxCell id="IM9ix_mjp3S93p6cJgH1-61" style="shape=tableRow;horizontal=0;startSize=0;swimlaneHead=0;swimlaneBody=0;fillColor=none;collapsible=0;dropTarget=0;points=[[0,0.5],[1,0.5]];portConstraint=eastwest;top=0;left=0;right=0;bottom=0;labelBackgroundColor=none;strokeColor=#457B9D;fontColor=#1D3557;" parent="IM9ix_mjp3S93p6cJgH1-52" vertex="1">
          <mxGeometry y="69" width="196" height="22" as="geometry" />
        </mxCell>
        <mxCell id="IM9ix_mjp3S93p6cJgH1-62" value="int" style="shape=partialRectangle;connectable=0;fillColor=none;top=0;left=0;bottom=0;right=0;align=left;spacingLeft=2;overflow=hidden;fontSize=11;labelBackgroundColor=none;strokeColor=#457B9D;fontColor=#1D3557;" parent="IM9ix_mjp3S93p6cJgH1-61" vertex="1">
          <mxGeometry width="36" height="22" as="geometry">
            <mxRectangle width="36" height="22" as="alternateBounds" />
          </mxGeometry>
        </mxCell>
        <mxCell id="IM9ix_mjp3S93p6cJgH1-63" value="department_id" style="shape=partialRectangle;connectable=0;fillColor=none;top=0;left=0;bottom=0;right=0;align=left;spacingLeft=2;overflow=hidden;fontSize=11;labelBackgroundColor=none;strokeColor=#457B9D;fontColor=#1D3557;" parent="IM9ix_mjp3S93p6cJgH1-61" vertex="1">
          <mxGeometry x="36" width="138" height="22" as="geometry">
            <mxRectangle width="138" height="22" as="alternateBounds" />
          </mxGeometry>
        </mxCell>
        <mxCell id="IM9ix_mjp3S93p6cJgH1-64" value="FK" style="shape=partialRectangle;connectable=0;fillColor=none;top=0;left=0;bottom=0;right=0;align=left;spacingLeft=2;overflow=hidden;fontSize=11;labelBackgroundColor=none;strokeColor=#457B9D;fontColor=#1D3557;" parent="IM9ix_mjp3S93p6cJgH1-61" vertex="1">
          <mxGeometry x="174" width="22" height="22" as="geometry">
            <mxRectangle width="22" height="22" as="alternateBounds" />
          </mxGeometry>
        </mxCell>
        <mxCell id="IM9ix_mjp3S93p6cJgH1-65" style="shape=tableRow;horizontal=0;startSize=0;swimlaneHead=0;swimlaneBody=0;fillColor=none;collapsible=0;dropTarget=0;points=[[0,0.5],[1,0.5]];portConstraint=eastwest;top=0;left=0;right=0;bottom=0;labelBackgroundColor=none;strokeColor=#457B9D;fontColor=#1D3557;" parent="IM9ix_mjp3S93p6cJgH1-52" vertex="1">
          <mxGeometry y="91" width="196" height="22" as="geometry" />
        </mxCell>
        <mxCell id="IM9ix_mjp3S93p6cJgH1-66" value="string" style="shape=partialRectangle;connectable=0;fillColor=none;top=0;left=0;bottom=0;right=0;align=left;spacingLeft=2;overflow=hidden;fontSize=11;labelBackgroundColor=none;strokeColor=#457B9D;fontColor=#1D3557;" parent="IM9ix_mjp3S93p6cJgH1-65" vertex="1">
          <mxGeometry width="36" height="22" as="geometry">
            <mxRectangle width="36" height="22" as="alternateBounds" />
          </mxGeometry>
        </mxCell>
        <mxCell id="IM9ix_mjp3S93p6cJgH1-67" value="academic_qualifications" style="shape=partialRectangle;connectable=0;fillColor=none;top=0;left=0;bottom=0;right=0;align=left;spacingLeft=2;overflow=hidden;fontSize=11;labelBackgroundColor=none;strokeColor=#457B9D;fontColor=#1D3557;" parent="IM9ix_mjp3S93p6cJgH1-65" vertex="1">
          <mxGeometry x="36" width="138" height="22" as="geometry">
            <mxRectangle width="138" height="22" as="alternateBounds" />
          </mxGeometry>
        </mxCell>
        <mxCell id="IM9ix_mjp3S93p6cJgH1-68" value="" style="shape=partialRectangle;connectable=0;fillColor=none;top=0;left=0;bottom=0;right=0;align=left;spacingLeft=2;overflow=hidden;fontSize=11;labelBackgroundColor=none;strokeColor=#457B9D;fontColor=#1D3557;" parent="IM9ix_mjp3S93p6cJgH1-65" vertex="1">
          <mxGeometry x="174" width="22" height="22" as="geometry">
            <mxRectangle width="22" height="22" as="alternateBounds" />
          </mxGeometry>
        </mxCell>
        <mxCell id="IM9ix_mjp3S93p6cJgH1-69" style="shape=tableRow;horizontal=0;startSize=0;swimlaneHead=0;swimlaneBody=0;fillColor=none;collapsible=0;dropTarget=0;points=[[0,0.5],[1,0.5]];portConstraint=eastwest;top=0;left=0;right=0;bottom=0;labelBackgroundColor=none;strokeColor=#457B9D;fontColor=#1D3557;" parent="IM9ix_mjp3S93p6cJgH1-52" vertex="1">
          <mxGeometry y="113" width="196" height="22" as="geometry" />
        </mxCell>
        <mxCell id="IM9ix_mjp3S93p6cJgH1-70" value="string" style="shape=partialRectangle;connectable=0;fillColor=none;top=0;left=0;bottom=0;right=0;align=left;spacingLeft=2;overflow=hidden;fontSize=11;labelBackgroundColor=none;strokeColor=#457B9D;fontColor=#1D3557;" parent="IM9ix_mjp3S93p6cJgH1-69" vertex="1">
          <mxGeometry width="36" height="22" as="geometry">
            <mxRectangle width="36" height="22" as="alternateBounds" />
          </mxGeometry>
        </mxCell>
        <mxCell id="IM9ix_mjp3S93p6cJgH1-71" value="areas_of_expertise" style="shape=partialRectangle;connectable=0;fillColor=none;top=0;left=0;bottom=0;right=0;align=left;spacingLeft=2;overflow=hidden;fontSize=11;labelBackgroundColor=none;strokeColor=#457B9D;fontColor=#1D3557;" parent="IM9ix_mjp3S93p6cJgH1-69" vertex="1">
          <mxGeometry x="36" width="138" height="22" as="geometry">
            <mxRectangle width="138" height="22" as="alternateBounds" />
          </mxGeometry>
        </mxCell>
        <mxCell id="IM9ix_mjp3S93p6cJgH1-72" value="" style="shape=partialRectangle;connectable=0;fillColor=none;top=0;left=0;bottom=0;right=0;align=left;spacingLeft=2;overflow=hidden;fontSize=11;labelBackgroundColor=none;strokeColor=#457B9D;fontColor=#1D3557;" parent="IM9ix_mjp3S93p6cJgH1-69" vertex="1">
          <mxGeometry x="174" width="22" height="22" as="geometry">
            <mxRectangle width="22" height="22" as="alternateBounds" />
          </mxGeometry>
        </mxCell>
        <mxCell id="IM9ix_mjp3S93p6cJgH1-73" style="shape=tableRow;horizontal=0;startSize=0;swimlaneHead=0;swimlaneBody=0;fillColor=none;collapsible=0;dropTarget=0;points=[[0,0.5],[1,0.5]];portConstraint=eastwest;top=0;left=0;right=0;bottom=0;labelBackgroundColor=none;strokeColor=#457B9D;fontColor=#1D3557;" parent="IM9ix_mjp3S93p6cJgH1-52" vertex="1">
          <mxGeometry y="135" width="196" height="22" as="geometry" />
        </mxCell>
        <mxCell id="IM9ix_mjp3S93p6cJgH1-74" value="int" style="shape=partialRectangle;connectable=0;fillColor=none;top=0;left=0;bottom=0;right=0;align=left;spacingLeft=2;overflow=hidden;fontSize=11;labelBackgroundColor=none;strokeColor=#457B9D;fontColor=#1D3557;" parent="IM9ix_mjp3S93p6cJgH1-73" vertex="1">
          <mxGeometry width="36" height="22" as="geometry">
            <mxRectangle width="36" height="22" as="alternateBounds" />
          </mxGeometry>
        </mxCell>
        <mxCell id="IM9ix_mjp3S93p6cJgH1-75" value="course_load" style="shape=partialRectangle;connectable=0;fillColor=none;top=0;left=0;bottom=0;right=0;align=left;spacingLeft=2;overflow=hidden;fontSize=11;labelBackgroundColor=none;strokeColor=#457B9D;fontColor=#1D3557;" parent="IM9ix_mjp3S93p6cJgH1-73" vertex="1">
          <mxGeometry x="36" width="138" height="22" as="geometry">
            <mxRectangle width="138" height="22" as="alternateBounds" />
          </mxGeometry>
        </mxCell>
        <mxCell id="IM9ix_mjp3S93p6cJgH1-76" value="" style="shape=partialRectangle;connectable=0;fillColor=none;top=0;left=0;bottom=0;right=0;align=left;spacingLeft=2;overflow=hidden;fontSize=11;labelBackgroundColor=none;strokeColor=#457B9D;fontColor=#1D3557;" parent="IM9ix_mjp3S93p6cJgH1-73" vertex="1">
          <mxGeometry x="174" width="22" height="22" as="geometry">
            <mxRectangle width="22" height="22" as="alternateBounds" />
          </mxGeometry>
        </mxCell>
        <mxCell id="IM9ix_mjp3S93p6cJgH1-77" style="shape=tableRow;horizontal=0;startSize=0;swimlaneHead=0;swimlaneBody=0;fillColor=none;collapsible=0;dropTarget=0;points=[[0,0.5],[1,0.5]];portConstraint=eastwest;top=0;left=0;right=0;bottom=0;labelBackgroundColor=none;strokeColor=#457B9D;fontColor=#1D3557;" parent="IM9ix_mjp3S93p6cJgH1-52" vertex="1">
          <mxGeometry y="157" width="196" height="22" as="geometry" />
        </mxCell>
        <mxCell id="IM9ix_mjp3S93p6cJgH1-78" value="string" style="shape=partialRectangle;connectable=0;fillColor=none;top=0;left=0;bottom=0;right=0;align=left;spacingLeft=2;overflow=hidden;fontSize=11;labelBackgroundColor=none;strokeColor=#457B9D;fontColor=#1D3557;" parent="IM9ix_mjp3S93p6cJgH1-77" vertex="1">
          <mxGeometry width="36" height="22" as="geometry">
            <mxRectangle width="36" height="22" as="alternateBounds" />
          </mxGeometry>
        </mxCell>
        <mxCell id="IM9ix_mjp3S93p6cJgH1-79" value="research_interests" style="shape=partialRectangle;connectable=0;fillColor=none;top=0;left=0;bottom=0;right=0;align=left;spacingLeft=2;overflow=hidden;fontSize=11;labelBackgroundColor=none;strokeColor=#457B9D;fontColor=#1D3557;" parent="IM9ix_mjp3S93p6cJgH1-77" vertex="1">
          <mxGeometry x="36" width="138" height="22" as="geometry">
            <mxRectangle width="138" height="22" as="alternateBounds" />
          </mxGeometry>
        </mxCell>
        <mxCell id="IM9ix_mjp3S93p6cJgH1-80" value="" style="shape=partialRectangle;connectable=0;fillColor=none;top=0;left=0;bottom=0;right=0;align=left;spacingLeft=2;overflow=hidden;fontSize=11;labelBackgroundColor=none;strokeColor=#457B9D;fontColor=#1D3557;" parent="IM9ix_mjp3S93p6cJgH1-77" vertex="1">
          <mxGeometry x="174" width="22" height="22" as="geometry">
            <mxRectangle width="22" height="22" as="alternateBounds" />
          </mxGeometry>
        </mxCell>
        <mxCell id="IM9ix_mjp3S93p6cJgH1-81" style="shape=tableRow;horizontal=0;startSize=0;swimlaneHead=0;swimlaneBody=0;fillColor=none;collapsible=0;dropTarget=0;points=[[0,0.5],[1,0.5]];portConstraint=eastwest;top=0;left=0;right=0;bottom=0;labelBackgroundColor=none;strokeColor=#457B9D;fontColor=#1D3557;" parent="IM9ix_mjp3S93p6cJgH1-52" vertex="1">
          <mxGeometry y="179" width="196" height="22" as="geometry" />
        </mxCell>
        <mxCell id="IM9ix_mjp3S93p6cJgH1-82" value="string" style="shape=partialRectangle;connectable=0;fillColor=none;top=0;left=0;bottom=0;right=0;align=left;spacingLeft=2;overflow=hidden;fontSize=11;labelBackgroundColor=none;strokeColor=#457B9D;fontColor=#1D3557;" parent="IM9ix_mjp3S93p6cJgH1-81" vertex="1">
          <mxGeometry width="36" height="22" as="geometry">
            <mxRectangle width="36" height="22" as="alternateBounds" />
          </mxGeometry>
        </mxCell>
        <mxCell id="IM9ix_mjp3S93p6cJgH1-83" value="publications" style="shape=partialRectangle;connectable=0;fillColor=none;top=0;left=0;bottom=0;right=0;align=left;spacingLeft=2;overflow=hidden;fontSize=11;labelBackgroundColor=none;strokeColor=#457B9D;fontColor=#1D3557;" parent="IM9ix_mjp3S93p6cJgH1-81" vertex="1">
          <mxGeometry x="36" width="138" height="22" as="geometry">
            <mxRectangle width="138" height="22" as="alternateBounds" />
          </mxGeometry>
        </mxCell>
        <mxCell id="IM9ix_mjp3S93p6cJgH1-84" value="" style="shape=partialRectangle;connectable=0;fillColor=none;top=0;left=0;bottom=0;right=0;align=left;spacingLeft=2;overflow=hidden;fontSize=11;labelBackgroundColor=none;strokeColor=#457B9D;fontColor=#1D3557;" parent="IM9ix_mjp3S93p6cJgH1-81" vertex="1">
          <mxGeometry x="174" width="22" height="22" as="geometry">
            <mxRectangle width="22" height="22" as="alternateBounds" />
          </mxGeometry>
        </mxCell>
        <mxCell id="IM9ix_mjp3S93p6cJgH1-85" style="shape=tableRow;horizontal=0;startSize=0;swimlaneHead=0;swimlaneBody=0;fillColor=none;collapsible=0;dropTarget=0;points=[[0,0.5],[1,0.5]];portConstraint=eastwest;top=0;left=0;right=0;bottom=0;labelBackgroundColor=none;strokeColor=#457B9D;fontColor=#1D3557;" parent="IM9ix_mjp3S93p6cJgH1-52" vertex="1">
          <mxGeometry y="201" width="196" height="22" as="geometry" />
        </mxCell>
        <mxCell id="IM9ix_mjp3S93p6cJgH1-86" value="string" style="shape=partialRectangle;connectable=0;fillColor=none;top=0;left=0;bottom=0;right=0;align=left;spacingLeft=2;overflow=hidden;fontSize=11;labelBackgroundColor=none;strokeColor=#457B9D;fontColor=#1D3557;" parent="IM9ix_mjp3S93p6cJgH1-85" vertex="1">
          <mxGeometry width="36" height="22" as="geometry">
            <mxRectangle width="36" height="22" as="alternateBounds" />
          </mxGeometry>
        </mxCell>
        <mxCell id="IM9ix_mjp3S93p6cJgH1-87" value="contact_info" style="shape=partialRectangle;connectable=0;fillColor=none;top=0;left=0;bottom=0;right=0;align=left;spacingLeft=2;overflow=hidden;fontSize=11;labelBackgroundColor=none;strokeColor=#457B9D;fontColor=#1D3557;" parent="IM9ix_mjp3S93p6cJgH1-85" vertex="1">
          <mxGeometry x="36" width="138" height="22" as="geometry">
            <mxRectangle width="138" height="22" as="alternateBounds" />
          </mxGeometry>
        </mxCell>
        <mxCell id="IM9ix_mjp3S93p6cJgH1-88" value="" style="shape=partialRectangle;connectable=0;fillColor=none;top=0;left=0;bottom=0;right=0;align=left;spacingLeft=2;overflow=hidden;fontSize=11;labelBackgroundColor=none;strokeColor=#457B9D;fontColor=#1D3557;" parent="IM9ix_mjp3S93p6cJgH1-85" vertex="1">
          <mxGeometry x="174" width="22" height="22" as="geometry">
            <mxRectangle width="22" height="22" as="alternateBounds" />
          </mxGeometry>
        </mxCell>
        <mxCell id="IM9ix_mjp3S93p6cJgH1-89" value="NONACADEMICSTAFF" style="shape=table;startSize=25;container=1;collapsible=0;childLayout=tableLayout;fixedRows=1;rowLines=1;fontStyle=1;align=center;resizeLast=1;labelBackgroundColor=none;fillColor=#A8DADC;strokeColor=#457B9D;fontColor=#1D3557;" parent="1" vertex="1">
          <mxGeometry x="260" y="232" width="170" height="201" as="geometry" />
        </mxCell>
        <mxCell id="IM9ix_mjp3S93p6cJgH1-90" style="shape=tableRow;horizontal=0;startSize=0;swimlaneHead=0;swimlaneBody=0;fillColor=none;collapsible=0;dropTarget=0;points=[[0,0.5],[1,0.5]];portConstraint=eastwest;top=0;left=0;right=0;bottom=0;labelBackgroundColor=none;strokeColor=#457B9D;fontColor=#1D3557;" parent="IM9ix_mjp3S93p6cJgH1-89" vertex="1">
          <mxGeometry y="25" width="170" height="22" as="geometry" />
        </mxCell>
        <mxCell id="IM9ix_mjp3S93p6cJgH1-91" value="int" style="shape=partialRectangle;connectable=0;fillColor=none;top=0;left=0;bottom=0;right=0;align=left;spacingLeft=2;overflow=hidden;fontSize=11;labelBackgroundColor=none;strokeColor=#457B9D;fontColor=#1D3557;" parent="IM9ix_mjp3S93p6cJgH1-90" vertex="1">
          <mxGeometry width="42" height="22" as="geometry">
            <mxRectangle width="42" height="22" as="alternateBounds" />
          </mxGeometry>
        </mxCell>
        <mxCell id="IM9ix_mjp3S93p6cJgH1-92" value="staff_id" style="shape=partialRectangle;connectable=0;fillColor=none;top=0;left=0;bottom=0;right=0;align=left;spacingLeft=2;overflow=hidden;fontSize=11;labelBackgroundColor=none;strokeColor=#457B9D;fontColor=#1D3557;" parent="IM9ix_mjp3S93p6cJgH1-90" vertex="1">
          <mxGeometry x="42" width="106" height="22" as="geometry">
            <mxRectangle width="106" height="22" as="alternateBounds" />
          </mxGeometry>
        </mxCell>
        <mxCell id="IM9ix_mjp3S93p6cJgH1-93" value="PK" style="shape=partialRectangle;connectable=0;fillColor=none;top=0;left=0;bottom=0;right=0;align=left;spacingLeft=2;overflow=hidden;fontSize=11;labelBackgroundColor=none;strokeColor=#457B9D;fontColor=#1D3557;" parent="IM9ix_mjp3S93p6cJgH1-90" vertex="1">
          <mxGeometry x="148" width="22" height="22" as="geometry">
            <mxRectangle width="22" height="22" as="alternateBounds" />
          </mxGeometry>
        </mxCell>
        <mxCell id="IM9ix_mjp3S93p6cJgH1-94" style="shape=tableRow;horizontal=0;startSize=0;swimlaneHead=0;swimlaneBody=0;fillColor=none;collapsible=0;dropTarget=0;points=[[0,0.5],[1,0.5]];portConstraint=eastwest;top=0;left=0;right=0;bottom=0;labelBackgroundColor=none;strokeColor=#457B9D;fontColor=#1D3557;" parent="IM9ix_mjp3S93p6cJgH1-89" vertex="1">
          <mxGeometry y="47" width="170" height="22" as="geometry" />
        </mxCell>
        <mxCell id="IM9ix_mjp3S93p6cJgH1-95" value="string" style="shape=partialRectangle;connectable=0;fillColor=none;top=0;left=0;bottom=0;right=0;align=left;spacingLeft=2;overflow=hidden;fontSize=11;labelBackgroundColor=none;strokeColor=#457B9D;fontColor=#1D3557;" parent="IM9ix_mjp3S93p6cJgH1-94" vertex="1">
          <mxGeometry width="42" height="22" as="geometry">
            <mxRectangle width="42" height="22" as="alternateBounds" />
          </mxGeometry>
        </mxCell>
        <mxCell id="IM9ix_mjp3S93p6cJgH1-96" value="name" style="shape=partialRectangle;connectable=0;fillColor=none;top=0;left=0;bottom=0;right=0;align=left;spacingLeft=2;overflow=hidden;fontSize=11;labelBackgroundColor=none;strokeColor=#457B9D;fontColor=#1D3557;" parent="IM9ix_mjp3S93p6cJgH1-94" vertex="1">
          <mxGeometry x="42" width="106" height="22" as="geometry">
            <mxRectangle width="106" height="22" as="alternateBounds" />
          </mxGeometry>
        </mxCell>
        <mxCell id="IM9ix_mjp3S93p6cJgH1-97" value="" style="shape=partialRectangle;connectable=0;fillColor=none;top=0;left=0;bottom=0;right=0;align=left;spacingLeft=2;overflow=hidden;fontSize=11;labelBackgroundColor=none;strokeColor=#457B9D;fontColor=#1D3557;" parent="IM9ix_mjp3S93p6cJgH1-94" vertex="1">
          <mxGeometry x="148" width="22" height="22" as="geometry">
            <mxRectangle width="22" height="22" as="alternateBounds" />
          </mxGeometry>
        </mxCell>
        <mxCell id="IM9ix_mjp3S93p6cJgH1-98" style="shape=tableRow;horizontal=0;startSize=0;swimlaneHead=0;swimlaneBody=0;fillColor=none;collapsible=0;dropTarget=0;points=[[0,0.5],[1,0.5]];portConstraint=eastwest;top=0;left=0;right=0;bottom=0;labelBackgroundColor=none;strokeColor=#457B9D;fontColor=#1D3557;" parent="IM9ix_mjp3S93p6cJgH1-89" vertex="1">
          <mxGeometry y="69" width="170" height="22" as="geometry" />
        </mxCell>
        <mxCell id="IM9ix_mjp3S93p6cJgH1-99" value="string" style="shape=partialRectangle;connectable=0;fillColor=none;top=0;left=0;bottom=0;right=0;align=left;spacingLeft=2;overflow=hidden;fontSize=11;labelBackgroundColor=none;strokeColor=#457B9D;fontColor=#1D3557;" parent="IM9ix_mjp3S93p6cJgH1-98" vertex="1">
          <mxGeometry width="42" height="22" as="geometry">
            <mxRectangle width="42" height="22" as="alternateBounds" />
          </mxGeometry>
        </mxCell>
        <mxCell id="IM9ix_mjp3S93p6cJgH1-100" value="job_title" style="shape=partialRectangle;connectable=0;fillColor=none;top=0;left=0;bottom=0;right=0;align=left;spacingLeft=2;overflow=hidden;fontSize=11;labelBackgroundColor=none;strokeColor=#457B9D;fontColor=#1D3557;" parent="IM9ix_mjp3S93p6cJgH1-98" vertex="1">
          <mxGeometry x="42" width="106" height="22" as="geometry">
            <mxRectangle width="106" height="22" as="alternateBounds" />
          </mxGeometry>
        </mxCell>
        <mxCell id="IM9ix_mjp3S93p6cJgH1-101" value="" style="shape=partialRectangle;connectable=0;fillColor=none;top=0;left=0;bottom=0;right=0;align=left;spacingLeft=2;overflow=hidden;fontSize=11;labelBackgroundColor=none;strokeColor=#457B9D;fontColor=#1D3557;" parent="IM9ix_mjp3S93p6cJgH1-98" vertex="1">
          <mxGeometry x="148" width="22" height="22" as="geometry">
            <mxRectangle width="22" height="22" as="alternateBounds" />
          </mxGeometry>
        </mxCell>
        <mxCell id="IM9ix_mjp3S93p6cJgH1-102" style="shape=tableRow;horizontal=0;startSize=0;swimlaneHead=0;swimlaneBody=0;fillColor=none;collapsible=0;dropTarget=0;points=[[0,0.5],[1,0.5]];portConstraint=eastwest;top=0;left=0;right=0;bottom=0;labelBackgroundColor=none;strokeColor=#457B9D;fontColor=#1D3557;" parent="IM9ix_mjp3S93p6cJgH1-89" vertex="1">
          <mxGeometry y="91" width="170" height="22" as="geometry" />
        </mxCell>
        <mxCell id="IM9ix_mjp3S93p6cJgH1-103" value="int" style="shape=partialRectangle;connectable=0;fillColor=none;top=0;left=0;bottom=0;right=0;align=left;spacingLeft=2;overflow=hidden;fontSize=11;labelBackgroundColor=none;strokeColor=#457B9D;fontColor=#1D3557;" parent="IM9ix_mjp3S93p6cJgH1-102" vertex="1">
          <mxGeometry width="42" height="22" as="geometry">
            <mxRectangle width="42" height="22" as="alternateBounds" />
          </mxGeometry>
        </mxCell>
        <mxCell id="IM9ix_mjp3S93p6cJgH1-104" value="department_id" style="shape=partialRectangle;connectable=0;fillColor=none;top=0;left=0;bottom=0;right=0;align=left;spacingLeft=2;overflow=hidden;fontSize=11;labelBackgroundColor=none;strokeColor=#457B9D;fontColor=#1D3557;" parent="IM9ix_mjp3S93p6cJgH1-102" vertex="1">
          <mxGeometry x="42" width="106" height="22" as="geometry">
            <mxRectangle width="106" height="22" as="alternateBounds" />
          </mxGeometry>
        </mxCell>
        <mxCell id="IM9ix_mjp3S93p6cJgH1-105" value="FK" style="shape=partialRectangle;connectable=0;fillColor=none;top=0;left=0;bottom=0;right=0;align=left;spacingLeft=2;overflow=hidden;fontSize=11;labelBackgroundColor=none;strokeColor=#457B9D;fontColor=#1D3557;" parent="IM9ix_mjp3S93p6cJgH1-102" vertex="1">
          <mxGeometry x="148" width="22" height="22" as="geometry">
            <mxRectangle width="22" height="22" as="alternateBounds" />
          </mxGeometry>
        </mxCell>
        <mxCell id="IM9ix_mjp3S93p6cJgH1-106" style="shape=tableRow;horizontal=0;startSize=0;swimlaneHead=0;swimlaneBody=0;fillColor=none;collapsible=0;dropTarget=0;points=[[0,0.5],[1,0.5]];portConstraint=eastwest;top=0;left=0;right=0;bottom=0;labelBackgroundColor=none;strokeColor=#457B9D;fontColor=#1D3557;" parent="IM9ix_mjp3S93p6cJgH1-89" vertex="1">
          <mxGeometry y="113" width="170" height="22" as="geometry" />
        </mxCell>
        <mxCell id="IM9ix_mjp3S93p6cJgH1-107" value="string" style="shape=partialRectangle;connectable=0;fillColor=none;top=0;left=0;bottom=0;right=0;align=left;spacingLeft=2;overflow=hidden;fontSize=11;labelBackgroundColor=none;strokeColor=#457B9D;fontColor=#1D3557;" parent="IM9ix_mjp3S93p6cJgH1-106" vertex="1">
          <mxGeometry width="42" height="22" as="geometry">
            <mxRectangle width="42" height="22" as="alternateBounds" />
          </mxGeometry>
        </mxCell>
        <mxCell id="IM9ix_mjp3S93p6cJgH1-108" value="employment_type" style="shape=partialRectangle;connectable=0;fillColor=none;top=0;left=0;bottom=0;right=0;align=left;spacingLeft=2;overflow=hidden;fontSize=11;labelBackgroundColor=none;strokeColor=#457B9D;fontColor=#1D3557;" parent="IM9ix_mjp3S93p6cJgH1-106" vertex="1">
          <mxGeometry x="42" width="106" height="22" as="geometry">
            <mxRectangle width="106" height="22" as="alternateBounds" />
          </mxGeometry>
        </mxCell>
        <mxCell id="IM9ix_mjp3S93p6cJgH1-109" value="" style="shape=partialRectangle;connectable=0;fillColor=none;top=0;left=0;bottom=0;right=0;align=left;spacingLeft=2;overflow=hidden;fontSize=11;labelBackgroundColor=none;strokeColor=#457B9D;fontColor=#1D3557;" parent="IM9ix_mjp3S93p6cJgH1-106" vertex="1">
          <mxGeometry x="148" width="22" height="22" as="geometry">
            <mxRectangle width="22" height="22" as="alternateBounds" />
          </mxGeometry>
        </mxCell>
        <mxCell id="IM9ix_mjp3S93p6cJgH1-110" style="shape=tableRow;horizontal=0;startSize=0;swimlaneHead=0;swimlaneBody=0;fillColor=none;collapsible=0;dropTarget=0;points=[[0,0.5],[1,0.5]];portConstraint=eastwest;top=0;left=0;right=0;bottom=0;labelBackgroundColor=none;strokeColor=#457B9D;fontColor=#1D3557;" parent="IM9ix_mjp3S93p6cJgH1-89" vertex="1">
          <mxGeometry y="135" width="170" height="22" as="geometry" />
        </mxCell>
        <mxCell id="IM9ix_mjp3S93p6cJgH1-111" value="string" style="shape=partialRectangle;connectable=0;fillColor=none;top=0;left=0;bottom=0;right=0;align=left;spacingLeft=2;overflow=hidden;fontSize=11;labelBackgroundColor=none;strokeColor=#457B9D;fontColor=#1D3557;" parent="IM9ix_mjp3S93p6cJgH1-110" vertex="1">
          <mxGeometry width="42" height="22" as="geometry">
            <mxRectangle width="42" height="22" as="alternateBounds" />
          </mxGeometry>
        </mxCell>
        <mxCell id="IM9ix_mjp3S93p6cJgH1-112" value="contract_details" style="shape=partialRectangle;connectable=0;fillColor=none;top=0;left=0;bottom=0;right=0;align=left;spacingLeft=2;overflow=hidden;fontSize=11;labelBackgroundColor=none;strokeColor=#457B9D;fontColor=#1D3557;" parent="IM9ix_mjp3S93p6cJgH1-110" vertex="1">
          <mxGeometry x="42" width="106" height="22" as="geometry">
            <mxRectangle width="106" height="22" as="alternateBounds" />
          </mxGeometry>
        </mxCell>
        <mxCell id="IM9ix_mjp3S93p6cJgH1-113" value="" style="shape=partialRectangle;connectable=0;fillColor=none;top=0;left=0;bottom=0;right=0;align=left;spacingLeft=2;overflow=hidden;fontSize=11;labelBackgroundColor=none;strokeColor=#457B9D;fontColor=#1D3557;" parent="IM9ix_mjp3S93p6cJgH1-110" vertex="1">
          <mxGeometry x="148" width="22" height="22" as="geometry">
            <mxRectangle width="22" height="22" as="alternateBounds" />
          </mxGeometry>
        </mxCell>
        <mxCell id="IM9ix_mjp3S93p6cJgH1-114" style="shape=tableRow;horizontal=0;startSize=0;swimlaneHead=0;swimlaneBody=0;fillColor=none;collapsible=0;dropTarget=0;points=[[0,0.5],[1,0.5]];portConstraint=eastwest;top=0;left=0;right=0;bottom=0;labelBackgroundColor=none;strokeColor=#457B9D;fontColor=#1D3557;" parent="IM9ix_mjp3S93p6cJgH1-89" vertex="1">
          <mxGeometry y="157" width="170" height="22" as="geometry" />
        </mxCell>
        <mxCell id="IM9ix_mjp3S93p6cJgH1-115" value="decimal" style="shape=partialRectangle;connectable=0;fillColor=none;top=0;left=0;bottom=0;right=0;align=left;spacingLeft=2;overflow=hidden;fontSize=11;labelBackgroundColor=none;strokeColor=#457B9D;fontColor=#1D3557;" parent="IM9ix_mjp3S93p6cJgH1-114" vertex="1">
          <mxGeometry width="42" height="22" as="geometry">
            <mxRectangle width="42" height="22" as="alternateBounds" />
          </mxGeometry>
        </mxCell>
        <mxCell id="IM9ix_mjp3S93p6cJgH1-116" value="salary_info" style="shape=partialRectangle;connectable=0;fillColor=none;top=0;left=0;bottom=0;right=0;align=left;spacingLeft=2;overflow=hidden;fontSize=11;labelBackgroundColor=none;strokeColor=#457B9D;fontColor=#1D3557;" parent="IM9ix_mjp3S93p6cJgH1-114" vertex="1">
          <mxGeometry x="42" width="106" height="22" as="geometry">
            <mxRectangle width="106" height="22" as="alternateBounds" />
          </mxGeometry>
        </mxCell>
        <mxCell id="IM9ix_mjp3S93p6cJgH1-117" value="" style="shape=partialRectangle;connectable=0;fillColor=none;top=0;left=0;bottom=0;right=0;align=left;spacingLeft=2;overflow=hidden;fontSize=11;labelBackgroundColor=none;strokeColor=#457B9D;fontColor=#1D3557;" parent="IM9ix_mjp3S93p6cJgH1-114" vertex="1">
          <mxGeometry x="148" width="22" height="22" as="geometry">
            <mxRectangle width="22" height="22" as="alternateBounds" />
          </mxGeometry>
        </mxCell>
        <mxCell id="IM9ix_mjp3S93p6cJgH1-118" style="shape=tableRow;horizontal=0;startSize=0;swimlaneHead=0;swimlaneBody=0;fillColor=none;collapsible=0;dropTarget=0;points=[[0,0.5],[1,0.5]];portConstraint=eastwest;top=0;left=0;right=0;bottom=0;labelBackgroundColor=none;strokeColor=#457B9D;fontColor=#1D3557;" parent="IM9ix_mjp3S93p6cJgH1-89" vertex="1">
          <mxGeometry y="179" width="170" height="22" as="geometry" />
        </mxCell>
        <mxCell id="IM9ix_mjp3S93p6cJgH1-119" value="string" style="shape=partialRectangle;connectable=0;fillColor=none;top=0;left=0;bottom=0;right=0;align=left;spacingLeft=2;overflow=hidden;fontSize=11;labelBackgroundColor=none;strokeColor=#457B9D;fontColor=#1D3557;" parent="IM9ix_mjp3S93p6cJgH1-118" vertex="1">
          <mxGeometry width="42" height="22" as="geometry">
            <mxRectangle width="42" height="22" as="alternateBounds" />
          </mxGeometry>
        </mxCell>
        <mxCell id="IM9ix_mjp3S93p6cJgH1-120" value="emergency_contact" style="shape=partialRectangle;connectable=0;fillColor=none;top=0;left=0;bottom=0;right=0;align=left;spacingLeft=2;overflow=hidden;fontSize=11;labelBackgroundColor=none;strokeColor=#457B9D;fontColor=#1D3557;" parent="IM9ix_mjp3S93p6cJgH1-118" vertex="1">
          <mxGeometry x="42" width="106" height="22" as="geometry">
            <mxRectangle width="106" height="22" as="alternateBounds" />
          </mxGeometry>
        </mxCell>
        <mxCell id="IM9ix_mjp3S93p6cJgH1-121" value="" style="shape=partialRectangle;connectable=0;fillColor=none;top=0;left=0;bottom=0;right=0;align=left;spacingLeft=2;overflow=hidden;fontSize=11;labelBackgroundColor=none;strokeColor=#457B9D;fontColor=#1D3557;" parent="IM9ix_mjp3S93p6cJgH1-118" vertex="1">
          <mxGeometry x="148" width="22" height="22" as="geometry">
            <mxRectangle width="22" height="22" as="alternateBounds" />
          </mxGeometry>
        </mxCell>
        <mxCell id="IM9ix_mjp3S93p6cJgH1-122" value="COURSES" style="shape=table;startSize=25;container=1;collapsible=0;childLayout=tableLayout;fixedRows=1;rowLines=1;fontStyle=1;align=center;resizeLast=1;labelBackgroundColor=none;fillColor=#A8DADC;strokeColor=#457B9D;fontColor=#1D3557;" parent="1" vertex="1">
          <mxGeometry x="1266" y="232" width="138" height="223" as="geometry" />
        </mxCell>
        <mxCell id="IM9ix_mjp3S93p6cJgH1-123" style="shape=tableRow;horizontal=0;startSize=0;swimlaneHead=0;swimlaneBody=0;fillColor=none;collapsible=0;dropTarget=0;points=[[0,0.5],[1,0.5]];portConstraint=eastwest;top=0;left=0;right=0;bottom=0;labelBackgroundColor=none;strokeColor=#457B9D;fontColor=#1D3557;" parent="IM9ix_mjp3S93p6cJgH1-122" vertex="1">
          <mxGeometry y="25" width="138" height="22" as="geometry" />
        </mxCell>
        <mxCell id="IM9ix_mjp3S93p6cJgH1-124" value="string" style="shape=partialRectangle;connectable=0;fillColor=none;top=0;left=0;bottom=0;right=0;align=left;spacingLeft=2;overflow=hidden;fontSize=11;labelBackgroundColor=none;strokeColor=#457B9D;fontColor=#1D3557;" parent="IM9ix_mjp3S93p6cJgH1-123" vertex="1">
          <mxGeometry width="36" height="22" as="geometry">
            <mxRectangle width="36" height="22" as="alternateBounds" />
          </mxGeometry>
        </mxCell>
        <mxCell id="IM9ix_mjp3S93p6cJgH1-125" value="course_code" style="shape=partialRectangle;connectable=0;fillColor=none;top=0;left=0;bottom=0;right=0;align=left;spacingLeft=2;overflow=hidden;fontSize=11;labelBackgroundColor=none;strokeColor=#457B9D;fontColor=#1D3557;" parent="IM9ix_mjp3S93p6cJgH1-123" vertex="1">
          <mxGeometry x="36" width="80" height="22" as="geometry">
            <mxRectangle width="80" height="22" as="alternateBounds" />
          </mxGeometry>
        </mxCell>
        <mxCell id="IM9ix_mjp3S93p6cJgH1-126" value="PK" style="shape=partialRectangle;connectable=0;fillColor=none;top=0;left=0;bottom=0;right=0;align=left;spacingLeft=2;overflow=hidden;fontSize=11;labelBackgroundColor=none;strokeColor=#457B9D;fontColor=#1D3557;" parent="IM9ix_mjp3S93p6cJgH1-123" vertex="1">
          <mxGeometry x="116" width="22" height="22" as="geometry">
            <mxRectangle width="22" height="22" as="alternateBounds" />
          </mxGeometry>
        </mxCell>
        <mxCell id="IM9ix_mjp3S93p6cJgH1-127" style="shape=tableRow;horizontal=0;startSize=0;swimlaneHead=0;swimlaneBody=0;fillColor=none;collapsible=0;dropTarget=0;points=[[0,0.5],[1,0.5]];portConstraint=eastwest;top=0;left=0;right=0;bottom=0;labelBackgroundColor=none;strokeColor=#457B9D;fontColor=#1D3557;" parent="IM9ix_mjp3S93p6cJgH1-122" vertex="1">
          <mxGeometry y="47" width="138" height="22" as="geometry" />
        </mxCell>
        <mxCell id="IM9ix_mjp3S93p6cJgH1-128" value="string" style="shape=partialRectangle;connectable=0;fillColor=none;top=0;left=0;bottom=0;right=0;align=left;spacingLeft=2;overflow=hidden;fontSize=11;labelBackgroundColor=none;strokeColor=#457B9D;fontColor=#1D3557;" parent="IM9ix_mjp3S93p6cJgH1-127" vertex="1">
          <mxGeometry width="36" height="22" as="geometry">
            <mxRectangle width="36" height="22" as="alternateBounds" />
          </mxGeometry>
        </mxCell>
        <mxCell id="IM9ix_mjp3S93p6cJgH1-129" value="course_name" style="shape=partialRectangle;connectable=0;fillColor=none;top=0;left=0;bottom=0;right=0;align=left;spacingLeft=2;overflow=hidden;fontSize=11;labelBackgroundColor=none;strokeColor=#457B9D;fontColor=#1D3557;" parent="IM9ix_mjp3S93p6cJgH1-127" vertex="1">
          <mxGeometry x="36" width="80" height="22" as="geometry">
            <mxRectangle width="80" height="22" as="alternateBounds" />
          </mxGeometry>
        </mxCell>
        <mxCell id="IM9ix_mjp3S93p6cJgH1-130" value="" style="shape=partialRectangle;connectable=0;fillColor=none;top=0;left=0;bottom=0;right=0;align=left;spacingLeft=2;overflow=hidden;fontSize=11;labelBackgroundColor=none;strokeColor=#457B9D;fontColor=#1D3557;" parent="IM9ix_mjp3S93p6cJgH1-127" vertex="1">
          <mxGeometry x="116" width="22" height="22" as="geometry">
            <mxRectangle width="22" height="22" as="alternateBounds" />
          </mxGeometry>
        </mxCell>
        <mxCell id="IM9ix_mjp3S93p6cJgH1-131" style="shape=tableRow;horizontal=0;startSize=0;swimlaneHead=0;swimlaneBody=0;fillColor=none;collapsible=0;dropTarget=0;points=[[0,0.5],[1,0.5]];portConstraint=eastwest;top=0;left=0;right=0;bottom=0;labelBackgroundColor=none;strokeColor=#457B9D;fontColor=#1D3557;" parent="IM9ix_mjp3S93p6cJgH1-122" vertex="1">
          <mxGeometry y="69" width="138" height="22" as="geometry" />
        </mxCell>
        <mxCell id="IM9ix_mjp3S93p6cJgH1-132" value="string" style="shape=partialRectangle;connectable=0;fillColor=none;top=0;left=0;bottom=0;right=0;align=left;spacingLeft=2;overflow=hidden;fontSize=11;labelBackgroundColor=none;strokeColor=#457B9D;fontColor=#1D3557;" parent="IM9ix_mjp3S93p6cJgH1-131" vertex="1">
          <mxGeometry width="36" height="22" as="geometry">
            <mxRectangle width="36" height="22" as="alternateBounds" />
          </mxGeometry>
        </mxCell>
        <mxCell id="IM9ix_mjp3S93p6cJgH1-133" value="description" style="shape=partialRectangle;connectable=0;fillColor=none;top=0;left=0;bottom=0;right=0;align=left;spacingLeft=2;overflow=hidden;fontSize=11;labelBackgroundColor=none;strokeColor=#457B9D;fontColor=#1D3557;" parent="IM9ix_mjp3S93p6cJgH1-131" vertex="1">
          <mxGeometry x="36" width="80" height="22" as="geometry">
            <mxRectangle width="80" height="22" as="alternateBounds" />
          </mxGeometry>
        </mxCell>
        <mxCell id="IM9ix_mjp3S93p6cJgH1-134" value="" style="shape=partialRectangle;connectable=0;fillColor=none;top=0;left=0;bottom=0;right=0;align=left;spacingLeft=2;overflow=hidden;fontSize=11;labelBackgroundColor=none;strokeColor=#457B9D;fontColor=#1D3557;" parent="IM9ix_mjp3S93p6cJgH1-131" vertex="1">
          <mxGeometry x="116" width="22" height="22" as="geometry">
            <mxRectangle width="22" height="22" as="alternateBounds" />
          </mxGeometry>
        </mxCell>
        <mxCell id="IM9ix_mjp3S93p6cJgH1-135" style="shape=tableRow;horizontal=0;startSize=0;swimlaneHead=0;swimlaneBody=0;fillColor=none;collapsible=0;dropTarget=0;points=[[0,0.5],[1,0.5]];portConstraint=eastwest;top=0;left=0;right=0;bottom=0;labelBackgroundColor=none;strokeColor=#457B9D;fontColor=#1D3557;" parent="IM9ix_mjp3S93p6cJgH1-122" vertex="1">
          <mxGeometry y="91" width="138" height="22" as="geometry" />
        </mxCell>
        <mxCell id="IM9ix_mjp3S93p6cJgH1-136" value="int" style="shape=partialRectangle;connectable=0;fillColor=none;top=0;left=0;bottom=0;right=0;align=left;spacingLeft=2;overflow=hidden;fontSize=11;labelBackgroundColor=none;strokeColor=#457B9D;fontColor=#1D3557;" parent="IM9ix_mjp3S93p6cJgH1-135" vertex="1">
          <mxGeometry width="36" height="22" as="geometry">
            <mxRectangle width="36" height="22" as="alternateBounds" />
          </mxGeometry>
        </mxCell>
        <mxCell id="IM9ix_mjp3S93p6cJgH1-137" value="department_id" style="shape=partialRectangle;connectable=0;fillColor=none;top=0;left=0;bottom=0;right=0;align=left;spacingLeft=2;overflow=hidden;fontSize=11;labelBackgroundColor=none;strokeColor=#457B9D;fontColor=#1D3557;" parent="IM9ix_mjp3S93p6cJgH1-135" vertex="1">
          <mxGeometry x="36" width="80" height="22" as="geometry">
            <mxRectangle width="80" height="22" as="alternateBounds" />
          </mxGeometry>
        </mxCell>
        <mxCell id="IM9ix_mjp3S93p6cJgH1-138" value="FK" style="shape=partialRectangle;connectable=0;fillColor=none;top=0;left=0;bottom=0;right=0;align=left;spacingLeft=2;overflow=hidden;fontSize=11;labelBackgroundColor=none;strokeColor=#457B9D;fontColor=#1D3557;" parent="IM9ix_mjp3S93p6cJgH1-135" vertex="1">
          <mxGeometry x="116" width="22" height="22" as="geometry">
            <mxRectangle width="22" height="22" as="alternateBounds" />
          </mxGeometry>
        </mxCell>
        <mxCell id="IM9ix_mjp3S93p6cJgH1-139" style="shape=tableRow;horizontal=0;startSize=0;swimlaneHead=0;swimlaneBody=0;fillColor=none;collapsible=0;dropTarget=0;points=[[0,0.5],[1,0.5]];portConstraint=eastwest;top=0;left=0;right=0;bottom=0;labelBackgroundColor=none;strokeColor=#457B9D;fontColor=#1D3557;" parent="IM9ix_mjp3S93p6cJgH1-122" vertex="1">
          <mxGeometry y="113" width="138" height="22" as="geometry" />
        </mxCell>
        <mxCell id="IM9ix_mjp3S93p6cJgH1-140" value="string" style="shape=partialRectangle;connectable=0;fillColor=none;top=0;left=0;bottom=0;right=0;align=left;spacingLeft=2;overflow=hidden;fontSize=11;labelBackgroundColor=none;strokeColor=#457B9D;fontColor=#1D3557;" parent="IM9ix_mjp3S93p6cJgH1-139" vertex="1">
          <mxGeometry width="36" height="22" as="geometry">
            <mxRectangle width="36" height="22" as="alternateBounds" />
          </mxGeometry>
        </mxCell>
        <mxCell id="IM9ix_mjp3S93p6cJgH1-141" value="level" style="shape=partialRectangle;connectable=0;fillColor=none;top=0;left=0;bottom=0;right=0;align=left;spacingLeft=2;overflow=hidden;fontSize=11;labelBackgroundColor=none;strokeColor=#457B9D;fontColor=#1D3557;" parent="IM9ix_mjp3S93p6cJgH1-139" vertex="1">
          <mxGeometry x="36" width="80" height="22" as="geometry">
            <mxRectangle width="80" height="22" as="alternateBounds" />
          </mxGeometry>
        </mxCell>
        <mxCell id="IM9ix_mjp3S93p6cJgH1-142" value="" style="shape=partialRectangle;connectable=0;fillColor=none;top=0;left=0;bottom=0;right=0;align=left;spacingLeft=2;overflow=hidden;fontSize=11;labelBackgroundColor=none;strokeColor=#457B9D;fontColor=#1D3557;" parent="IM9ix_mjp3S93p6cJgH1-139" vertex="1">
          <mxGeometry x="116" width="22" height="22" as="geometry">
            <mxRectangle width="22" height="22" as="alternateBounds" />
          </mxGeometry>
        </mxCell>
        <mxCell id="IM9ix_mjp3S93p6cJgH1-143" style="shape=tableRow;horizontal=0;startSize=0;swimlaneHead=0;swimlaneBody=0;fillColor=none;collapsible=0;dropTarget=0;points=[[0,0.5],[1,0.5]];portConstraint=eastwest;top=0;left=0;right=0;bottom=0;labelBackgroundColor=none;strokeColor=#457B9D;fontColor=#1D3557;" parent="IM9ix_mjp3S93p6cJgH1-122" vertex="1">
          <mxGeometry y="135" width="138" height="22" as="geometry" />
        </mxCell>
        <mxCell id="IM9ix_mjp3S93p6cJgH1-144" value="int" style="shape=partialRectangle;connectable=0;fillColor=none;top=0;left=0;bottom=0;right=0;align=left;spacingLeft=2;overflow=hidden;fontSize=11;labelBackgroundColor=none;strokeColor=#457B9D;fontColor=#1D3557;" parent="IM9ix_mjp3S93p6cJgH1-143" vertex="1">
          <mxGeometry width="36" height="22" as="geometry">
            <mxRectangle width="36" height="22" as="alternateBounds" />
          </mxGeometry>
        </mxCell>
        <mxCell id="IM9ix_mjp3S93p6cJgH1-145" value="credits" style="shape=partialRectangle;connectable=0;fillColor=none;top=0;left=0;bottom=0;right=0;align=left;spacingLeft=2;overflow=hidden;fontSize=11;labelBackgroundColor=none;strokeColor=#457B9D;fontColor=#1D3557;" parent="IM9ix_mjp3S93p6cJgH1-143" vertex="1">
          <mxGeometry x="36" width="80" height="22" as="geometry">
            <mxRectangle width="80" height="22" as="alternateBounds" />
          </mxGeometry>
        </mxCell>
        <mxCell id="IM9ix_mjp3S93p6cJgH1-146" value="" style="shape=partialRectangle;connectable=0;fillColor=none;top=0;left=0;bottom=0;right=0;align=left;spacingLeft=2;overflow=hidden;fontSize=11;labelBackgroundColor=none;strokeColor=#457B9D;fontColor=#1D3557;" parent="IM9ix_mjp3S93p6cJgH1-143" vertex="1">
          <mxGeometry x="116" width="22" height="22" as="geometry">
            <mxRectangle width="22" height="22" as="alternateBounds" />
          </mxGeometry>
        </mxCell>
        <mxCell id="IM9ix_mjp3S93p6cJgH1-147" style="shape=tableRow;horizontal=0;startSize=0;swimlaneHead=0;swimlaneBody=0;fillColor=none;collapsible=0;dropTarget=0;points=[[0,0.5],[1,0.5]];portConstraint=eastwest;top=0;left=0;right=0;bottom=0;labelBackgroundColor=none;strokeColor=#457B9D;fontColor=#1D3557;" parent="IM9ix_mjp3S93p6cJgH1-122" vertex="1">
          <mxGeometry y="157" width="138" height="22" as="geometry" />
        </mxCell>
        <mxCell id="IM9ix_mjp3S93p6cJgH1-148" value="string" style="shape=partialRectangle;connectable=0;fillColor=none;top=0;left=0;bottom=0;right=0;align=left;spacingLeft=2;overflow=hidden;fontSize=11;labelBackgroundColor=none;strokeColor=#457B9D;fontColor=#1D3557;" parent="IM9ix_mjp3S93p6cJgH1-147" vertex="1">
          <mxGeometry width="36" height="22" as="geometry">
            <mxRectangle width="36" height="22" as="alternateBounds" />
          </mxGeometry>
        </mxCell>
        <mxCell id="IM9ix_mjp3S93p6cJgH1-149" value="prerequisites" style="shape=partialRectangle;connectable=0;fillColor=none;top=0;left=0;bottom=0;right=0;align=left;spacingLeft=2;overflow=hidden;fontSize=11;labelBackgroundColor=none;strokeColor=#457B9D;fontColor=#1D3557;" parent="IM9ix_mjp3S93p6cJgH1-147" vertex="1">
          <mxGeometry x="36" width="80" height="22" as="geometry">
            <mxRectangle width="80" height="22" as="alternateBounds" />
          </mxGeometry>
        </mxCell>
        <mxCell id="IM9ix_mjp3S93p6cJgH1-150" value="" style="shape=partialRectangle;connectable=0;fillColor=none;top=0;left=0;bottom=0;right=0;align=left;spacingLeft=2;overflow=hidden;fontSize=11;labelBackgroundColor=none;strokeColor=#457B9D;fontColor=#1D3557;" parent="IM9ix_mjp3S93p6cJgH1-147" vertex="1">
          <mxGeometry x="116" width="22" height="22" as="geometry">
            <mxRectangle width="22" height="22" as="alternateBounds" />
          </mxGeometry>
        </mxCell>
        <mxCell id="IM9ix_mjp3S93p6cJgH1-151" style="shape=tableRow;horizontal=0;startSize=0;swimlaneHead=0;swimlaneBody=0;fillColor=none;collapsible=0;dropTarget=0;points=[[0,0.5],[1,0.5]];portConstraint=eastwest;top=0;left=0;right=0;bottom=0;labelBackgroundColor=none;strokeColor=#457B9D;fontColor=#1D3557;" parent="IM9ix_mjp3S93p6cJgH1-122" vertex="1">
          <mxGeometry y="179" width="138" height="22" as="geometry" />
        </mxCell>
        <mxCell id="IM9ix_mjp3S93p6cJgH1-152" value="string" style="shape=partialRectangle;connectable=0;fillColor=none;top=0;left=0;bottom=0;right=0;align=left;spacingLeft=2;overflow=hidden;fontSize=11;labelBackgroundColor=none;strokeColor=#457B9D;fontColor=#1D3557;" parent="IM9ix_mjp3S93p6cJgH1-151" vertex="1">
          <mxGeometry width="36" height="22" as="geometry">
            <mxRectangle width="36" height="22" as="alternateBounds" />
          </mxGeometry>
        </mxCell>
        <mxCell id="IM9ix_mjp3S93p6cJgH1-153" value="schedule" style="shape=partialRectangle;connectable=0;fillColor=none;top=0;left=0;bottom=0;right=0;align=left;spacingLeft=2;overflow=hidden;fontSize=11;labelBackgroundColor=none;strokeColor=#457B9D;fontColor=#1D3557;" parent="IM9ix_mjp3S93p6cJgH1-151" vertex="1">
          <mxGeometry x="36" width="80" height="22" as="geometry">
            <mxRectangle width="80" height="22" as="alternateBounds" />
          </mxGeometry>
        </mxCell>
        <mxCell id="IM9ix_mjp3S93p6cJgH1-154" value="" style="shape=partialRectangle;connectable=0;fillColor=none;top=0;left=0;bottom=0;right=0;align=left;spacingLeft=2;overflow=hidden;fontSize=11;labelBackgroundColor=none;strokeColor=#457B9D;fontColor=#1D3557;" parent="IM9ix_mjp3S93p6cJgH1-151" vertex="1">
          <mxGeometry x="116" width="22" height="22" as="geometry">
            <mxRectangle width="22" height="22" as="alternateBounds" />
          </mxGeometry>
        </mxCell>
        <mxCell id="IM9ix_mjp3S93p6cJgH1-155" style="shape=tableRow;horizontal=0;startSize=0;swimlaneHead=0;swimlaneBody=0;fillColor=none;collapsible=0;dropTarget=0;points=[[0,0.5],[1,0.5]];portConstraint=eastwest;top=0;left=0;right=0;bottom=0;labelBackgroundColor=none;strokeColor=#457B9D;fontColor=#1D3557;" parent="IM9ix_mjp3S93p6cJgH1-122" vertex="1">
          <mxGeometry y="201" width="138" height="22" as="geometry" />
        </mxCell>
        <mxCell id="IM9ix_mjp3S93p6cJgH1-156" value="string" style="shape=partialRectangle;connectable=0;fillColor=none;top=0;left=0;bottom=0;right=0;align=left;spacingLeft=2;overflow=hidden;fontSize=11;labelBackgroundColor=none;strokeColor=#457B9D;fontColor=#1D3557;" parent="IM9ix_mjp3S93p6cJgH1-155" vertex="1">
          <mxGeometry width="36" height="22" as="geometry">
            <mxRectangle width="36" height="22" as="alternateBounds" />
          </mxGeometry>
        </mxCell>
        <mxCell id="IM9ix_mjp3S93p6cJgH1-157" value="materials" style="shape=partialRectangle;connectable=0;fillColor=none;top=0;left=0;bottom=0;right=0;align=left;spacingLeft=2;overflow=hidden;fontSize=11;labelBackgroundColor=none;strokeColor=#457B9D;fontColor=#1D3557;" parent="IM9ix_mjp3S93p6cJgH1-155" vertex="1">
          <mxGeometry x="36" width="80" height="22" as="geometry">
            <mxRectangle width="80" height="22" as="alternateBounds" />
          </mxGeometry>
        </mxCell>
        <mxCell id="IM9ix_mjp3S93p6cJgH1-158" value="" style="shape=partialRectangle;connectable=0;fillColor=none;top=0;left=0;bottom=0;right=0;align=left;spacingLeft=2;overflow=hidden;fontSize=11;labelBackgroundColor=none;strokeColor=#457B9D;fontColor=#1D3557;" parent="IM9ix_mjp3S93p6cJgH1-155" vertex="1">
          <mxGeometry x="116" width="22" height="22" as="geometry">
            <mxRectangle width="22" height="22" as="alternateBounds" />
          </mxGeometry>
        </mxCell>
        <mxCell id="IM9ix_mjp3S93p6cJgH1-159" value="DEPARTMENTS" style="shape=table;startSize=25;container=1;collapsible=0;childLayout=tableLayout;fixedRows=1;rowLines=1;fontStyle=1;align=center;resizeLast=1;labelBackgroundColor=none;fillColor=#A8DADC;strokeColor=#457B9D;fontColor=#1D3557;" parent="1" vertex="1">
          <mxGeometry x="656" y="20" width="142" height="113" as="geometry" />
        </mxCell>
        <mxCell id="IM9ix_mjp3S93p6cJgH1-160" style="shape=tableRow;horizontal=0;startSize=0;swimlaneHead=0;swimlaneBody=0;fillColor=none;collapsible=0;dropTarget=0;points=[[0,0.5],[1,0.5]];portConstraint=eastwest;top=0;left=0;right=0;bottom=0;labelBackgroundColor=none;strokeColor=#457B9D;fontColor=#1D3557;" parent="IM9ix_mjp3S93p6cJgH1-159" vertex="1">
          <mxGeometry y="25" width="142" height="22" as="geometry" />
        </mxCell>
        <mxCell id="IM9ix_mjp3S93p6cJgH1-161" value="int" style="shape=partialRectangle;connectable=0;fillColor=none;top=0;left=0;bottom=0;right=0;align=left;spacingLeft=2;overflow=hidden;fontSize=11;labelBackgroundColor=none;strokeColor=#457B9D;fontColor=#1D3557;" parent="IM9ix_mjp3S93p6cJgH1-160" vertex="1">
          <mxGeometry width="36" height="22" as="geometry">
            <mxRectangle width="36" height="22" as="alternateBounds" />
          </mxGeometry>
        </mxCell>
        <mxCell id="IM9ix_mjp3S93p6cJgH1-162" value="department_id" style="shape=partialRectangle;connectable=0;fillColor=none;top=0;left=0;bottom=0;right=0;align=left;spacingLeft=2;overflow=hidden;fontSize=11;labelBackgroundColor=none;strokeColor=#457B9D;fontColor=#1D3557;" parent="IM9ix_mjp3S93p6cJgH1-160" vertex="1">
          <mxGeometry x="36" width="84" height="22" as="geometry">
            <mxRectangle width="84" height="22" as="alternateBounds" />
          </mxGeometry>
        </mxCell>
        <mxCell id="IM9ix_mjp3S93p6cJgH1-163" value="PK" style="shape=partialRectangle;connectable=0;fillColor=none;top=0;left=0;bottom=0;right=0;align=left;spacingLeft=2;overflow=hidden;fontSize=11;labelBackgroundColor=none;strokeColor=#457B9D;fontColor=#1D3557;" parent="IM9ix_mjp3S93p6cJgH1-160" vertex="1">
          <mxGeometry x="120" width="22" height="22" as="geometry">
            <mxRectangle width="22" height="22" as="alternateBounds" />
          </mxGeometry>
        </mxCell>
        <mxCell id="IM9ix_mjp3S93p6cJgH1-164" style="shape=tableRow;horizontal=0;startSize=0;swimlaneHead=0;swimlaneBody=0;fillColor=none;collapsible=0;dropTarget=0;points=[[0,0.5],[1,0.5]];portConstraint=eastwest;top=0;left=0;right=0;bottom=0;labelBackgroundColor=none;strokeColor=#457B9D;fontColor=#1D3557;" parent="IM9ix_mjp3S93p6cJgH1-159" vertex="1">
          <mxGeometry y="47" width="142" height="22" as="geometry" />
        </mxCell>
        <mxCell id="IM9ix_mjp3S93p6cJgH1-165" value="string" style="shape=partialRectangle;connectable=0;fillColor=none;top=0;left=0;bottom=0;right=0;align=left;spacingLeft=2;overflow=hidden;fontSize=11;labelBackgroundColor=none;strokeColor=#457B9D;fontColor=#1D3557;" parent="IM9ix_mjp3S93p6cJgH1-164" vertex="1">
          <mxGeometry width="36" height="22" as="geometry">
            <mxRectangle width="36" height="22" as="alternateBounds" />
          </mxGeometry>
        </mxCell>
        <mxCell id="IM9ix_mjp3S93p6cJgH1-166" value="dept_name" style="shape=partialRectangle;connectable=0;fillColor=none;top=0;left=0;bottom=0;right=0;align=left;spacingLeft=2;overflow=hidden;fontSize=11;labelBackgroundColor=none;strokeColor=#457B9D;fontColor=#1D3557;" parent="IM9ix_mjp3S93p6cJgH1-164" vertex="1">
          <mxGeometry x="36" width="84" height="22" as="geometry">
            <mxRectangle width="84" height="22" as="alternateBounds" />
          </mxGeometry>
        </mxCell>
        <mxCell id="IM9ix_mjp3S93p6cJgH1-167" value="" style="shape=partialRectangle;connectable=0;fillColor=none;top=0;left=0;bottom=0;right=0;align=left;spacingLeft=2;overflow=hidden;fontSize=11;labelBackgroundColor=none;strokeColor=#457B9D;fontColor=#1D3557;" parent="IM9ix_mjp3S93p6cJgH1-164" vertex="1">
          <mxGeometry x="120" width="22" height="22" as="geometry">
            <mxRectangle width="22" height="22" as="alternateBounds" />
          </mxGeometry>
        </mxCell>
        <mxCell id="IM9ix_mjp3S93p6cJgH1-168" style="shape=tableRow;horizontal=0;startSize=0;swimlaneHead=0;swimlaneBody=0;fillColor=none;collapsible=0;dropTarget=0;points=[[0,0.5],[1,0.5]];portConstraint=eastwest;top=0;left=0;right=0;bottom=0;labelBackgroundColor=none;strokeColor=#457B9D;fontColor=#1D3557;" parent="IM9ix_mjp3S93p6cJgH1-159" vertex="1">
          <mxGeometry y="69" width="142" height="22" as="geometry" />
        </mxCell>
        <mxCell id="IM9ix_mjp3S93p6cJgH1-169" value="string" style="shape=partialRectangle;connectable=0;fillColor=none;top=0;left=0;bottom=0;right=0;align=left;spacingLeft=2;overflow=hidden;fontSize=11;labelBackgroundColor=none;strokeColor=#457B9D;fontColor=#1D3557;" parent="IM9ix_mjp3S93p6cJgH1-168" vertex="1">
          <mxGeometry width="36" height="22" as="geometry">
            <mxRectangle width="36" height="22" as="alternateBounds" />
          </mxGeometry>
        </mxCell>
        <mxCell id="IM9ix_mjp3S93p6cJgH1-170" value="faculty" style="shape=partialRectangle;connectable=0;fillColor=none;top=0;left=0;bottom=0;right=0;align=left;spacingLeft=2;overflow=hidden;fontSize=11;labelBackgroundColor=none;strokeColor=#457B9D;fontColor=#1D3557;" parent="IM9ix_mjp3S93p6cJgH1-168" vertex="1">
          <mxGeometry x="36" width="84" height="22" as="geometry">
            <mxRectangle width="84" height="22" as="alternateBounds" />
          </mxGeometry>
        </mxCell>
        <mxCell id="IM9ix_mjp3S93p6cJgH1-171" value="" style="shape=partialRectangle;connectable=0;fillColor=none;top=0;left=0;bottom=0;right=0;align=left;spacingLeft=2;overflow=hidden;fontSize=11;labelBackgroundColor=none;strokeColor=#457B9D;fontColor=#1D3557;" parent="IM9ix_mjp3S93p6cJgH1-168" vertex="1">
          <mxGeometry x="120" width="22" height="22" as="geometry">
            <mxRectangle width="22" height="22" as="alternateBounds" />
          </mxGeometry>
        </mxCell>
        <mxCell id="IM9ix_mjp3S93p6cJgH1-172" style="shape=tableRow;horizontal=0;startSize=0;swimlaneHead=0;swimlaneBody=0;fillColor=none;collapsible=0;dropTarget=0;points=[[0,0.5],[1,0.5]];portConstraint=eastwest;top=0;left=0;right=0;bottom=0;labelBackgroundColor=none;strokeColor=#457B9D;fontColor=#1D3557;" parent="IM9ix_mjp3S93p6cJgH1-159" vertex="1">
          <mxGeometry y="91" width="142" height="22" as="geometry" />
        </mxCell>
        <mxCell id="IM9ix_mjp3S93p6cJgH1-173" value="string" style="shape=partialRectangle;connectable=0;fillColor=none;top=0;left=0;bottom=0;right=0;align=left;spacingLeft=2;overflow=hidden;fontSize=11;labelBackgroundColor=none;strokeColor=#457B9D;fontColor=#1D3557;" parent="IM9ix_mjp3S93p6cJgH1-172" vertex="1">
          <mxGeometry width="36" height="22" as="geometry">
            <mxRectangle width="36" height="22" as="alternateBounds" />
          </mxGeometry>
        </mxCell>
        <mxCell id="IM9ix_mjp3S93p6cJgH1-174" value="research_areas" style="shape=partialRectangle;connectable=0;fillColor=none;top=0;left=0;bottom=0;right=0;align=left;spacingLeft=2;overflow=hidden;fontSize=11;labelBackgroundColor=none;strokeColor=#457B9D;fontColor=#1D3557;" parent="IM9ix_mjp3S93p6cJgH1-172" vertex="1">
          <mxGeometry x="36" width="84" height="22" as="geometry">
            <mxRectangle width="84" height="22" as="alternateBounds" />
          </mxGeometry>
        </mxCell>
        <mxCell id="IM9ix_mjp3S93p6cJgH1-175" value="" style="shape=partialRectangle;connectable=0;fillColor=none;top=0;left=0;bottom=0;right=0;align=left;spacingLeft=2;overflow=hidden;fontSize=11;labelBackgroundColor=none;strokeColor=#457B9D;fontColor=#1D3557;" parent="IM9ix_mjp3S93p6cJgH1-172" vertex="1">
          <mxGeometry x="120" width="22" height="22" as="geometry">
            <mxRectangle width="22" height="22" as="alternateBounds" />
          </mxGeometry>
        </mxCell>
        <mxCell id="IM9ix_mjp3S93p6cJgH1-176" value="PROGRAMS" style="shape=table;startSize=25;container=1;collapsible=0;childLayout=tableLayout;fixedRows=1;rowLines=1;fontStyle=1;align=center;resizeLast=1;labelBackgroundColor=none;fillColor=#A8DADC;strokeColor=#457B9D;fontColor=#1D3557;" parent="1" vertex="1">
          <mxGeometry x="23" y="265" width="172" height="157" as="geometry" />
        </mxCell>
        <mxCell id="IM9ix_mjp3S93p6cJgH1-177" style="shape=tableRow;horizontal=0;startSize=0;swimlaneHead=0;swimlaneBody=0;fillColor=none;collapsible=0;dropTarget=0;points=[[0,0.5],[1,0.5]];portConstraint=eastwest;top=0;left=0;right=0;bottom=0;labelBackgroundColor=none;strokeColor=#457B9D;fontColor=#1D3557;" parent="IM9ix_mjp3S93p6cJgH1-176" vertex="1">
          <mxGeometry y="25" width="172" height="22" as="geometry" />
        </mxCell>
        <mxCell id="IM9ix_mjp3S93p6cJgH1-178" value="string" style="shape=partialRectangle;connectable=0;fillColor=none;top=0;left=0;bottom=0;right=0;align=left;spacingLeft=2;overflow=hidden;fontSize=11;labelBackgroundColor=none;strokeColor=#457B9D;fontColor=#1D3557;" parent="IM9ix_mjp3S93p6cJgH1-177" vertex="1">
          <mxGeometry width="36" height="22" as="geometry">
            <mxRectangle width="36" height="22" as="alternateBounds" />
          </mxGeometry>
        </mxCell>
        <mxCell id="IM9ix_mjp3S93p6cJgH1-179" value="program_id" style="shape=partialRectangle;connectable=0;fillColor=none;top=0;left=0;bottom=0;right=0;align=left;spacingLeft=2;overflow=hidden;fontSize=11;labelBackgroundColor=none;strokeColor=#457B9D;fontColor=#1D3557;" parent="IM9ix_mjp3S93p6cJgH1-177" vertex="1">
          <mxGeometry x="36" width="114" height="22" as="geometry">
            <mxRectangle width="114" height="22" as="alternateBounds" />
          </mxGeometry>
        </mxCell>
        <mxCell id="IM9ix_mjp3S93p6cJgH1-180" value="PK" style="shape=partialRectangle;connectable=0;fillColor=none;top=0;left=0;bottom=0;right=0;align=left;spacingLeft=2;overflow=hidden;fontSize=11;labelBackgroundColor=none;strokeColor=#457B9D;fontColor=#1D3557;" parent="IM9ix_mjp3S93p6cJgH1-177" vertex="1">
          <mxGeometry x="150" width="22" height="22" as="geometry">
            <mxRectangle width="22" height="22" as="alternateBounds" />
          </mxGeometry>
        </mxCell>
        <mxCell id="IM9ix_mjp3S93p6cJgH1-181" style="shape=tableRow;horizontal=0;startSize=0;swimlaneHead=0;swimlaneBody=0;fillColor=none;collapsible=0;dropTarget=0;points=[[0,0.5],[1,0.5]];portConstraint=eastwest;top=0;left=0;right=0;bottom=0;labelBackgroundColor=none;strokeColor=#457B9D;fontColor=#1D3557;" parent="IM9ix_mjp3S93p6cJgH1-176" vertex="1">
          <mxGeometry y="47" width="172" height="22" as="geometry" />
        </mxCell>
        <mxCell id="IM9ix_mjp3S93p6cJgH1-182" value="string" style="shape=partialRectangle;connectable=0;fillColor=none;top=0;left=0;bottom=0;right=0;align=left;spacingLeft=2;overflow=hidden;fontSize=11;labelBackgroundColor=none;strokeColor=#457B9D;fontColor=#1D3557;" parent="IM9ix_mjp3S93p6cJgH1-181" vertex="1">
          <mxGeometry width="36" height="22" as="geometry">
            <mxRectangle width="36" height="22" as="alternateBounds" />
          </mxGeometry>
        </mxCell>
        <mxCell id="IM9ix_mjp3S93p6cJgH1-183" value="program_name" style="shape=partialRectangle;connectable=0;fillColor=none;top=0;left=0;bottom=0;right=0;align=left;spacingLeft=2;overflow=hidden;fontSize=11;labelBackgroundColor=none;strokeColor=#457B9D;fontColor=#1D3557;" parent="IM9ix_mjp3S93p6cJgH1-181" vertex="1">
          <mxGeometry x="36" width="114" height="22" as="geometry">
            <mxRectangle width="114" height="22" as="alternateBounds" />
          </mxGeometry>
        </mxCell>
        <mxCell id="IM9ix_mjp3S93p6cJgH1-184" value="" style="shape=partialRectangle;connectable=0;fillColor=none;top=0;left=0;bottom=0;right=0;align=left;spacingLeft=2;overflow=hidden;fontSize=11;labelBackgroundColor=none;strokeColor=#457B9D;fontColor=#1D3557;" parent="IM9ix_mjp3S93p6cJgH1-181" vertex="1">
          <mxGeometry x="150" width="22" height="22" as="geometry">
            <mxRectangle width="22" height="22" as="alternateBounds" />
          </mxGeometry>
        </mxCell>
        <mxCell id="IM9ix_mjp3S93p6cJgH1-185" style="shape=tableRow;horizontal=0;startSize=0;swimlaneHead=0;swimlaneBody=0;fillColor=none;collapsible=0;dropTarget=0;points=[[0,0.5],[1,0.5]];portConstraint=eastwest;top=0;left=0;right=0;bottom=0;labelBackgroundColor=none;strokeColor=#457B9D;fontColor=#1D3557;" parent="IM9ix_mjp3S93p6cJgH1-176" vertex="1">
          <mxGeometry y="69" width="172" height="22" as="geometry" />
        </mxCell>
        <mxCell id="IM9ix_mjp3S93p6cJgH1-186" value="string" style="shape=partialRectangle;connectable=0;fillColor=none;top=0;left=0;bottom=0;right=0;align=left;spacingLeft=2;overflow=hidden;fontSize=11;labelBackgroundColor=none;strokeColor=#457B9D;fontColor=#1D3557;" parent="IM9ix_mjp3S93p6cJgH1-185" vertex="1">
          <mxGeometry width="36" height="22" as="geometry">
            <mxRectangle width="36" height="22" as="alternateBounds" />
          </mxGeometry>
        </mxCell>
        <mxCell id="IM9ix_mjp3S93p6cJgH1-187" value="degree_awarded" style="shape=partialRectangle;connectable=0;fillColor=none;top=0;left=0;bottom=0;right=0;align=left;spacingLeft=2;overflow=hidden;fontSize=11;labelBackgroundColor=none;strokeColor=#457B9D;fontColor=#1D3557;" parent="IM9ix_mjp3S93p6cJgH1-185" vertex="1">
          <mxGeometry x="36" width="114" height="22" as="geometry">
            <mxRectangle width="114" height="22" as="alternateBounds" />
          </mxGeometry>
        </mxCell>
        <mxCell id="IM9ix_mjp3S93p6cJgH1-188" value="" style="shape=partialRectangle;connectable=0;fillColor=none;top=0;left=0;bottom=0;right=0;align=left;spacingLeft=2;overflow=hidden;fontSize=11;labelBackgroundColor=none;strokeColor=#457B9D;fontColor=#1D3557;" parent="IM9ix_mjp3S93p6cJgH1-185" vertex="1">
          <mxGeometry x="150" width="22" height="22" as="geometry">
            <mxRectangle width="22" height="22" as="alternateBounds" />
          </mxGeometry>
        </mxCell>
        <mxCell id="IM9ix_mjp3S93p6cJgH1-189" style="shape=tableRow;horizontal=0;startSize=0;swimlaneHead=0;swimlaneBody=0;fillColor=none;collapsible=0;dropTarget=0;points=[[0,0.5],[1,0.5]];portConstraint=eastwest;top=0;left=0;right=0;bottom=0;labelBackgroundColor=none;strokeColor=#457B9D;fontColor=#1D3557;" parent="IM9ix_mjp3S93p6cJgH1-176" vertex="1">
          <mxGeometry y="91" width="172" height="22" as="geometry" />
        </mxCell>
        <mxCell id="IM9ix_mjp3S93p6cJgH1-190" value="int" style="shape=partialRectangle;connectable=0;fillColor=none;top=0;left=0;bottom=0;right=0;align=left;spacingLeft=2;overflow=hidden;fontSize=11;labelBackgroundColor=none;strokeColor=#457B9D;fontColor=#1D3557;" parent="IM9ix_mjp3S93p6cJgH1-189" vertex="1">
          <mxGeometry width="36" height="22" as="geometry">
            <mxRectangle width="36" height="22" as="alternateBounds" />
          </mxGeometry>
        </mxCell>
        <mxCell id="IM9ix_mjp3S93p6cJgH1-191" value="duration" style="shape=partialRectangle;connectable=0;fillColor=none;top=0;left=0;bottom=0;right=0;align=left;spacingLeft=2;overflow=hidden;fontSize=11;labelBackgroundColor=none;strokeColor=#457B9D;fontColor=#1D3557;" parent="IM9ix_mjp3S93p6cJgH1-189" vertex="1">
          <mxGeometry x="36" width="114" height="22" as="geometry">
            <mxRectangle width="114" height="22" as="alternateBounds" />
          </mxGeometry>
        </mxCell>
        <mxCell id="IM9ix_mjp3S93p6cJgH1-192" value="" style="shape=partialRectangle;connectable=0;fillColor=none;top=0;left=0;bottom=0;right=0;align=left;spacingLeft=2;overflow=hidden;fontSize=11;labelBackgroundColor=none;strokeColor=#457B9D;fontColor=#1D3557;" parent="IM9ix_mjp3S93p6cJgH1-189" vertex="1">
          <mxGeometry x="150" width="22" height="22" as="geometry">
            <mxRectangle width="22" height="22" as="alternateBounds" />
          </mxGeometry>
        </mxCell>
        <mxCell id="IM9ix_mjp3S93p6cJgH1-193" style="shape=tableRow;horizontal=0;startSize=0;swimlaneHead=0;swimlaneBody=0;fillColor=none;collapsible=0;dropTarget=0;points=[[0,0.5],[1,0.5]];portConstraint=eastwest;top=0;left=0;right=0;bottom=0;labelBackgroundColor=none;strokeColor=#457B9D;fontColor=#1D3557;" parent="IM9ix_mjp3S93p6cJgH1-176" vertex="1">
          <mxGeometry y="113" width="172" height="22" as="geometry" />
        </mxCell>
        <mxCell id="IM9ix_mjp3S93p6cJgH1-194" value="string" style="shape=partialRectangle;connectable=0;fillColor=none;top=0;left=0;bottom=0;right=0;align=left;spacingLeft=2;overflow=hidden;fontSize=11;labelBackgroundColor=none;strokeColor=#457B9D;fontColor=#1D3557;" parent="IM9ix_mjp3S93p6cJgH1-193" vertex="1">
          <mxGeometry width="36" height="22" as="geometry">
            <mxRectangle width="36" height="22" as="alternateBounds" />
          </mxGeometry>
        </mxCell>
        <mxCell id="IM9ix_mjp3S93p6cJgH1-195" value="course_requirements" style="shape=partialRectangle;connectable=0;fillColor=none;top=0;left=0;bottom=0;right=0;align=left;spacingLeft=2;overflow=hidden;fontSize=11;labelBackgroundColor=none;strokeColor=#457B9D;fontColor=#1D3557;" parent="IM9ix_mjp3S93p6cJgH1-193" vertex="1">
          <mxGeometry x="36" width="114" height="22" as="geometry">
            <mxRectangle width="114" height="22" as="alternateBounds" />
          </mxGeometry>
        </mxCell>
        <mxCell id="IM9ix_mjp3S93p6cJgH1-196" value="" style="shape=partialRectangle;connectable=0;fillColor=none;top=0;left=0;bottom=0;right=0;align=left;spacingLeft=2;overflow=hidden;fontSize=11;labelBackgroundColor=none;strokeColor=#457B9D;fontColor=#1D3557;" parent="IM9ix_mjp3S93p6cJgH1-193" vertex="1">
          <mxGeometry x="150" width="22" height="22" as="geometry">
            <mxRectangle width="22" height="22" as="alternateBounds" />
          </mxGeometry>
        </mxCell>
        <mxCell id="IM9ix_mjp3S93p6cJgH1-197" style="shape=tableRow;horizontal=0;startSize=0;swimlaneHead=0;swimlaneBody=0;fillColor=none;collapsible=0;dropTarget=0;points=[[0,0.5],[1,0.5]];portConstraint=eastwest;top=0;left=0;right=0;bottom=0;labelBackgroundColor=none;strokeColor=#457B9D;fontColor=#1D3557;" parent="IM9ix_mjp3S93p6cJgH1-176" vertex="1">
          <mxGeometry y="135" width="172" height="22" as="geometry" />
        </mxCell>
        <mxCell id="IM9ix_mjp3S93p6cJgH1-198" value="string" style="shape=partialRectangle;connectable=0;fillColor=none;top=0;left=0;bottom=0;right=0;align=left;spacingLeft=2;overflow=hidden;fontSize=11;labelBackgroundColor=none;strokeColor=#457B9D;fontColor=#1D3557;" parent="IM9ix_mjp3S93p6cJgH1-197" vertex="1">
          <mxGeometry width="36" height="22" as="geometry">
            <mxRectangle width="36" height="22" as="alternateBounds" />
          </mxGeometry>
        </mxCell>
        <mxCell id="IM9ix_mjp3S93p6cJgH1-199" value="enrollment_details" style="shape=partialRectangle;connectable=0;fillColor=none;top=0;left=0;bottom=0;right=0;align=left;spacingLeft=2;overflow=hidden;fontSize=11;labelBackgroundColor=none;strokeColor=#457B9D;fontColor=#1D3557;" parent="IM9ix_mjp3S93p6cJgH1-197" vertex="1">
          <mxGeometry x="36" width="114" height="22" as="geometry">
            <mxRectangle width="114" height="22" as="alternateBounds" />
          </mxGeometry>
        </mxCell>
        <mxCell id="IM9ix_mjp3S93p6cJgH1-200" value="" style="shape=partialRectangle;connectable=0;fillColor=none;top=0;left=0;bottom=0;right=0;align=left;spacingLeft=2;overflow=hidden;fontSize=11;labelBackgroundColor=none;strokeColor=#457B9D;fontColor=#1D3557;" parent="IM9ix_mjp3S93p6cJgH1-197" vertex="1">
          <mxGeometry x="150" width="22" height="22" as="geometry">
            <mxRectangle width="22" height="22" as="alternateBounds" />
          </mxGeometry>
        </mxCell>
        <mxCell id="IM9ix_mjp3S93p6cJgH1-201" value="RESEARCHPROJECTS" style="shape=table;startSize=25;container=1;collapsible=0;childLayout=tableLayout;fixedRows=1;rowLines=1;fontStyle=1;align=center;resizeLast=1;labelBackgroundColor=none;fillColor=#A8DADC;strokeColor=#457B9D;fontColor=#1D3557;" parent="1" vertex="1">
          <mxGeometry x="400" y="530" width="190" height="179" as="geometry" />
        </mxCell>
        <mxCell id="IM9ix_mjp3S93p6cJgH1-202" style="shape=tableRow;horizontal=0;startSize=0;swimlaneHead=0;swimlaneBody=0;fillColor=none;collapsible=0;dropTarget=0;points=[[0,0.5],[1,0.5]];portConstraint=eastwest;top=0;left=0;right=0;bottom=0;labelBackgroundColor=none;strokeColor=#457B9D;fontColor=#1D3557;" parent="IM9ix_mjp3S93p6cJgH1-201" vertex="1">
          <mxGeometry y="25" width="190" height="22" as="geometry" />
        </mxCell>
        <mxCell id="IM9ix_mjp3S93p6cJgH1-203" value="int" style="shape=partialRectangle;connectable=0;fillColor=none;top=0;left=0;bottom=0;right=0;align=left;spacingLeft=2;overflow=hidden;fontSize=11;labelBackgroundColor=none;strokeColor=#457B9D;fontColor=#1D3557;" parent="IM9ix_mjp3S93p6cJgH1-202" vertex="1">
          <mxGeometry width="36" height="22" as="geometry">
            <mxRectangle width="36" height="22" as="alternateBounds" />
          </mxGeometry>
        </mxCell>
        <mxCell id="IM9ix_mjp3S93p6cJgH1-204" value="project_id" style="shape=partialRectangle;connectable=0;fillColor=none;top=0;left=0;bottom=0;right=0;align=left;spacingLeft=2;overflow=hidden;fontSize=11;labelBackgroundColor=none;strokeColor=#457B9D;fontColor=#1D3557;" parent="IM9ix_mjp3S93p6cJgH1-202" vertex="1">
          <mxGeometry x="36" width="132" height="22" as="geometry">
            <mxRectangle width="132" height="22" as="alternateBounds" />
          </mxGeometry>
        </mxCell>
        <mxCell id="IM9ix_mjp3S93p6cJgH1-205" value="PK" style="shape=partialRectangle;connectable=0;fillColor=none;top=0;left=0;bottom=0;right=0;align=left;spacingLeft=2;overflow=hidden;fontSize=11;labelBackgroundColor=none;strokeColor=#457B9D;fontColor=#1D3557;" parent="IM9ix_mjp3S93p6cJgH1-202" vertex="1">
          <mxGeometry x="168" width="22" height="22" as="geometry">
            <mxRectangle width="22" height="22" as="alternateBounds" />
          </mxGeometry>
        </mxCell>
        <mxCell id="IM9ix_mjp3S93p6cJgH1-206" style="shape=tableRow;horizontal=0;startSize=0;swimlaneHead=0;swimlaneBody=0;fillColor=none;collapsible=0;dropTarget=0;points=[[0,0.5],[1,0.5]];portConstraint=eastwest;top=0;left=0;right=0;bottom=0;labelBackgroundColor=none;strokeColor=#457B9D;fontColor=#1D3557;" parent="IM9ix_mjp3S93p6cJgH1-201" vertex="1">
          <mxGeometry y="47" width="190" height="22" as="geometry" />
        </mxCell>
        <mxCell id="IM9ix_mjp3S93p6cJgH1-207" value="string" style="shape=partialRectangle;connectable=0;fillColor=none;top=0;left=0;bottom=0;right=0;align=left;spacingLeft=2;overflow=hidden;fontSize=11;labelBackgroundColor=none;strokeColor=#457B9D;fontColor=#1D3557;" parent="IM9ix_mjp3S93p6cJgH1-206" vertex="1">
          <mxGeometry width="36" height="22" as="geometry">
            <mxRectangle width="36" height="22" as="alternateBounds" />
          </mxGeometry>
        </mxCell>
        <mxCell id="IM9ix_mjp3S93p6cJgH1-208" value="project_title" style="shape=partialRectangle;connectable=0;fillColor=none;top=0;left=0;bottom=0;right=0;align=left;spacingLeft=2;overflow=hidden;fontSize=11;labelBackgroundColor=none;strokeColor=#457B9D;fontColor=#1D3557;" parent="IM9ix_mjp3S93p6cJgH1-206" vertex="1">
          <mxGeometry x="36" width="132" height="22" as="geometry">
            <mxRectangle width="132" height="22" as="alternateBounds" />
          </mxGeometry>
        </mxCell>
        <mxCell id="IM9ix_mjp3S93p6cJgH1-209" value="" style="shape=partialRectangle;connectable=0;fillColor=none;top=0;left=0;bottom=0;right=0;align=left;spacingLeft=2;overflow=hidden;fontSize=11;labelBackgroundColor=none;strokeColor=#457B9D;fontColor=#1D3557;" parent="IM9ix_mjp3S93p6cJgH1-206" vertex="1">
          <mxGeometry x="168" width="22" height="22" as="geometry">
            <mxRectangle width="22" height="22" as="alternateBounds" />
          </mxGeometry>
        </mxCell>
        <mxCell id="IM9ix_mjp3S93p6cJgH1-210" style="shape=tableRow;horizontal=0;startSize=0;swimlaneHead=0;swimlaneBody=0;fillColor=none;collapsible=0;dropTarget=0;points=[[0,0.5],[1,0.5]];portConstraint=eastwest;top=0;left=0;right=0;bottom=0;labelBackgroundColor=none;strokeColor=#457B9D;fontColor=#1D3557;" parent="IM9ix_mjp3S93p6cJgH1-201" vertex="1">
          <mxGeometry y="69" width="190" height="22" as="geometry" />
        </mxCell>
        <mxCell id="IM9ix_mjp3S93p6cJgH1-211" value="int" style="shape=partialRectangle;connectable=0;fillColor=none;top=0;left=0;bottom=0;right=0;align=left;spacingLeft=2;overflow=hidden;fontSize=11;labelBackgroundColor=none;strokeColor=#457B9D;fontColor=#1D3557;" parent="IM9ix_mjp3S93p6cJgH1-210" vertex="1">
          <mxGeometry width="36" height="22" as="geometry">
            <mxRectangle width="36" height="22" as="alternateBounds" />
          </mxGeometry>
        </mxCell>
        <mxCell id="IM9ix_mjp3S93p6cJgH1-212" value="principal_investigator" style="shape=partialRectangle;connectable=0;fillColor=none;top=0;left=0;bottom=0;right=0;align=left;spacingLeft=2;overflow=hidden;fontSize=11;labelBackgroundColor=none;strokeColor=#457B9D;fontColor=#1D3557;" parent="IM9ix_mjp3S93p6cJgH1-210" vertex="1">
          <mxGeometry x="36" width="132" height="22" as="geometry">
            <mxRectangle width="132" height="22" as="alternateBounds" />
          </mxGeometry>
        </mxCell>
        <mxCell id="IM9ix_mjp3S93p6cJgH1-213" value="FK" style="shape=partialRectangle;connectable=0;fillColor=none;top=0;left=0;bottom=0;right=0;align=left;spacingLeft=2;overflow=hidden;fontSize=11;labelBackgroundColor=none;strokeColor=#457B9D;fontColor=#1D3557;" parent="IM9ix_mjp3S93p6cJgH1-210" vertex="1">
          <mxGeometry x="168" width="22" height="22" as="geometry">
            <mxRectangle width="22" height="22" as="alternateBounds" />
          </mxGeometry>
        </mxCell>
        <mxCell id="IM9ix_mjp3S93p6cJgH1-214" style="shape=tableRow;horizontal=0;startSize=0;swimlaneHead=0;swimlaneBody=0;fillColor=none;collapsible=0;dropTarget=0;points=[[0,0.5],[1,0.5]];portConstraint=eastwest;top=0;left=0;right=0;bottom=0;labelBackgroundColor=none;strokeColor=#457B9D;fontColor=#1D3557;" parent="IM9ix_mjp3S93p6cJgH1-201" vertex="1">
          <mxGeometry y="91" width="190" height="22" as="geometry" />
        </mxCell>
        <mxCell id="IM9ix_mjp3S93p6cJgH1-215" value="string" style="shape=partialRectangle;connectable=0;fillColor=none;top=0;left=0;bottom=0;right=0;align=left;spacingLeft=2;overflow=hidden;fontSize=11;labelBackgroundColor=none;strokeColor=#457B9D;fontColor=#1D3557;" parent="IM9ix_mjp3S93p6cJgH1-214" vertex="1">
          <mxGeometry width="36" height="22" as="geometry">
            <mxRectangle width="36" height="22" as="alternateBounds" />
          </mxGeometry>
        </mxCell>
        <mxCell id="IM9ix_mjp3S93p6cJgH1-216" value="funding_sources" style="shape=partialRectangle;connectable=0;fillColor=none;top=0;left=0;bottom=0;right=0;align=left;spacingLeft=2;overflow=hidden;fontSize=11;labelBackgroundColor=none;strokeColor=#457B9D;fontColor=#1D3557;" parent="IM9ix_mjp3S93p6cJgH1-214" vertex="1">
          <mxGeometry x="36" width="132" height="22" as="geometry">
            <mxRectangle width="132" height="22" as="alternateBounds" />
          </mxGeometry>
        </mxCell>
        <mxCell id="IM9ix_mjp3S93p6cJgH1-217" value="" style="shape=partialRectangle;connectable=0;fillColor=none;top=0;left=0;bottom=0;right=0;align=left;spacingLeft=2;overflow=hidden;fontSize=11;labelBackgroundColor=none;strokeColor=#457B9D;fontColor=#1D3557;" parent="IM9ix_mjp3S93p6cJgH1-214" vertex="1">
          <mxGeometry x="168" width="22" height="22" as="geometry">
            <mxRectangle width="22" height="22" as="alternateBounds" />
          </mxGeometry>
        </mxCell>
        <mxCell id="IM9ix_mjp3S93p6cJgH1-218" style="shape=tableRow;horizontal=0;startSize=0;swimlaneHead=0;swimlaneBody=0;fillColor=none;collapsible=0;dropTarget=0;points=[[0,0.5],[1,0.5]];portConstraint=eastwest;top=0;left=0;right=0;bottom=0;labelBackgroundColor=none;strokeColor=#457B9D;fontColor=#1D3557;" parent="IM9ix_mjp3S93p6cJgH1-201" vertex="1">
          <mxGeometry y="113" width="190" height="22" as="geometry" />
        </mxCell>
        <mxCell id="IM9ix_mjp3S93p6cJgH1-219" value="string" style="shape=partialRectangle;connectable=0;fillColor=none;top=0;left=0;bottom=0;right=0;align=left;spacingLeft=2;overflow=hidden;fontSize=11;labelBackgroundColor=none;strokeColor=#457B9D;fontColor=#1D3557;" parent="IM9ix_mjp3S93p6cJgH1-218" vertex="1">
          <mxGeometry width="36" height="22" as="geometry">
            <mxRectangle width="36" height="22" as="alternateBounds" />
          </mxGeometry>
        </mxCell>
        <mxCell id="IM9ix_mjp3S93p6cJgH1-220" value="team_members" style="shape=partialRectangle;connectable=0;fillColor=none;top=0;left=0;bottom=0;right=0;align=left;spacingLeft=2;overflow=hidden;fontSize=11;labelBackgroundColor=none;strokeColor=#457B9D;fontColor=#1D3557;" parent="IM9ix_mjp3S93p6cJgH1-218" vertex="1">
          <mxGeometry x="36" width="132" height="22" as="geometry">
            <mxRectangle width="132" height="22" as="alternateBounds" />
          </mxGeometry>
        </mxCell>
        <mxCell id="IM9ix_mjp3S93p6cJgH1-221" value="" style="shape=partialRectangle;connectable=0;fillColor=none;top=0;left=0;bottom=0;right=0;align=left;spacingLeft=2;overflow=hidden;fontSize=11;labelBackgroundColor=none;strokeColor=#457B9D;fontColor=#1D3557;" parent="IM9ix_mjp3S93p6cJgH1-218" vertex="1">
          <mxGeometry x="168" width="22" height="22" as="geometry">
            <mxRectangle width="22" height="22" as="alternateBounds" />
          </mxGeometry>
        </mxCell>
        <mxCell id="IM9ix_mjp3S93p6cJgH1-222" style="shape=tableRow;horizontal=0;startSize=0;swimlaneHead=0;swimlaneBody=0;fillColor=none;collapsible=0;dropTarget=0;points=[[0,0.5],[1,0.5]];portConstraint=eastwest;top=0;left=0;right=0;bottom=0;labelBackgroundColor=none;strokeColor=#457B9D;fontColor=#1D3557;" parent="IM9ix_mjp3S93p6cJgH1-201" vertex="1">
          <mxGeometry y="135" width="190" height="22" as="geometry" />
        </mxCell>
        <mxCell id="IM9ix_mjp3S93p6cJgH1-223" value="string" style="shape=partialRectangle;connectable=0;fillColor=none;top=0;left=0;bottom=0;right=0;align=left;spacingLeft=2;overflow=hidden;fontSize=11;labelBackgroundColor=none;strokeColor=#457B9D;fontColor=#1D3557;" parent="IM9ix_mjp3S93p6cJgH1-222" vertex="1">
          <mxGeometry width="36" height="22" as="geometry">
            <mxRectangle width="36" height="22" as="alternateBounds" />
          </mxGeometry>
        </mxCell>
        <mxCell id="IM9ix_mjp3S93p6cJgH1-224" value="publications" style="shape=partialRectangle;connectable=0;fillColor=none;top=0;left=0;bottom=0;right=0;align=left;spacingLeft=2;overflow=hidden;fontSize=11;labelBackgroundColor=none;strokeColor=#457B9D;fontColor=#1D3557;" parent="IM9ix_mjp3S93p6cJgH1-222" vertex="1">
          <mxGeometry x="36" width="132" height="22" as="geometry">
            <mxRectangle width="132" height="22" as="alternateBounds" />
          </mxGeometry>
        </mxCell>
        <mxCell id="IM9ix_mjp3S93p6cJgH1-225" value="" style="shape=partialRectangle;connectable=0;fillColor=none;top=0;left=0;bottom=0;right=0;align=left;spacingLeft=2;overflow=hidden;fontSize=11;labelBackgroundColor=none;strokeColor=#457B9D;fontColor=#1D3557;" parent="IM9ix_mjp3S93p6cJgH1-222" vertex="1">
          <mxGeometry x="168" width="22" height="22" as="geometry">
            <mxRectangle width="22" height="22" as="alternateBounds" />
          </mxGeometry>
        </mxCell>
        <mxCell id="IM9ix_mjp3S93p6cJgH1-226" style="shape=tableRow;horizontal=0;startSize=0;swimlaneHead=0;swimlaneBody=0;fillColor=none;collapsible=0;dropTarget=0;points=[[0,0.5],[1,0.5]];portConstraint=eastwest;top=0;left=0;right=0;bottom=0;labelBackgroundColor=none;strokeColor=#457B9D;fontColor=#1D3557;" parent="IM9ix_mjp3S93p6cJgH1-201" vertex="1">
          <mxGeometry y="157" width="190" height="22" as="geometry" />
        </mxCell>
        <mxCell id="IM9ix_mjp3S93p6cJgH1-227" value="string" style="shape=partialRectangle;connectable=0;fillColor=none;top=0;left=0;bottom=0;right=0;align=left;spacingLeft=2;overflow=hidden;fontSize=11;labelBackgroundColor=none;strokeColor=#457B9D;fontColor=#1D3557;" parent="IM9ix_mjp3S93p6cJgH1-226" vertex="1">
          <mxGeometry width="36" height="22" as="geometry">
            <mxRectangle width="36" height="22" as="alternateBounds" />
          </mxGeometry>
        </mxCell>
        <mxCell id="IM9ix_mjp3S93p6cJgH1-228" value="outcomes" style="shape=partialRectangle;connectable=0;fillColor=none;top=0;left=0;bottom=0;right=0;align=left;spacingLeft=2;overflow=hidden;fontSize=11;labelBackgroundColor=none;strokeColor=#457B9D;fontColor=#1D3557;" parent="IM9ix_mjp3S93p6cJgH1-226" vertex="1">
          <mxGeometry x="36" width="132" height="22" as="geometry">
            <mxRectangle width="132" height="22" as="alternateBounds" />
          </mxGeometry>
        </mxCell>
        <mxCell id="IM9ix_mjp3S93p6cJgH1-229" value="" style="shape=partialRectangle;connectable=0;fillColor=none;top=0;left=0;bottom=0;right=0;align=left;spacingLeft=2;overflow=hidden;fontSize=11;labelBackgroundColor=none;strokeColor=#457B9D;fontColor=#1D3557;" parent="IM9ix_mjp3S93p6cJgH1-226" vertex="1">
          <mxGeometry x="168" width="22" height="22" as="geometry">
            <mxRectangle width="22" height="22" as="alternateBounds" />
          </mxGeometry>
        </mxCell>
        <mxCell id="IM9ix_mjp3S93p6cJgH1-230" value="STUDENTORGANIZATIONS" style="shape=table;startSize=25;container=1;collapsible=0;childLayout=tableLayout;fixedRows=1;rowLines=1;fontStyle=1;align=center;resizeLast=1;labelBackgroundColor=none;fillColor=#A8DADC;strokeColor=#457B9D;fontColor=#1D3557;" parent="1" vertex="1">
          <mxGeometry x="930" y="910" width="164" height="113" as="geometry" />
        </mxCell>
        <mxCell id="IM9ix_mjp3S93p6cJgH1-231" style="shape=tableRow;horizontal=0;startSize=0;swimlaneHead=0;swimlaneBody=0;fillColor=none;collapsible=0;dropTarget=0;points=[[0,0.5],[1,0.5]];portConstraint=eastwest;top=0;left=0;right=0;bottom=0;labelBackgroundColor=none;strokeColor=#457B9D;fontColor=#1D3557;" parent="IM9ix_mjp3S93p6cJgH1-230" vertex="1">
          <mxGeometry y="25" width="164" height="22" as="geometry" />
        </mxCell>
        <mxCell id="IM9ix_mjp3S93p6cJgH1-232" value="int" style="shape=partialRectangle;connectable=0;fillColor=none;top=0;left=0;bottom=0;right=0;align=left;spacingLeft=2;overflow=hidden;fontSize=11;labelBackgroundColor=none;strokeColor=#457B9D;fontColor=#1D3557;" parent="IM9ix_mjp3S93p6cJgH1-231" vertex="1">
          <mxGeometry width="36" height="22" as="geometry">
            <mxRectangle width="36" height="22" as="alternateBounds" />
          </mxGeometry>
        </mxCell>
        <mxCell id="IM9ix_mjp3S93p6cJgH1-233" value="org_id" style="shape=partialRectangle;connectable=0;fillColor=none;top=0;left=0;bottom=0;right=0;align=left;spacingLeft=2;overflow=hidden;fontSize=11;labelBackgroundColor=none;strokeColor=#457B9D;fontColor=#1D3557;" parent="IM9ix_mjp3S93p6cJgH1-231" vertex="1">
          <mxGeometry x="36" width="106" height="22" as="geometry">
            <mxRectangle width="106" height="22" as="alternateBounds" />
          </mxGeometry>
        </mxCell>
        <mxCell id="IM9ix_mjp3S93p6cJgH1-234" value="PK" style="shape=partialRectangle;connectable=0;fillColor=none;top=0;left=0;bottom=0;right=0;align=left;spacingLeft=2;overflow=hidden;fontSize=11;labelBackgroundColor=none;strokeColor=#457B9D;fontColor=#1D3557;" parent="IM9ix_mjp3S93p6cJgH1-231" vertex="1">
          <mxGeometry x="142" width="22" height="22" as="geometry">
            <mxRectangle width="22" height="22" as="alternateBounds" />
          </mxGeometry>
        </mxCell>
        <mxCell id="IM9ix_mjp3S93p6cJgH1-235" style="shape=tableRow;horizontal=0;startSize=0;swimlaneHead=0;swimlaneBody=0;fillColor=none;collapsible=0;dropTarget=0;points=[[0,0.5],[1,0.5]];portConstraint=eastwest;top=0;left=0;right=0;bottom=0;labelBackgroundColor=none;strokeColor=#457B9D;fontColor=#1D3557;" parent="IM9ix_mjp3S93p6cJgH1-230" vertex="1">
          <mxGeometry y="47" width="164" height="22" as="geometry" />
        </mxCell>
        <mxCell id="IM9ix_mjp3S93p6cJgH1-236" value="string" style="shape=partialRectangle;connectable=0;fillColor=none;top=0;left=0;bottom=0;right=0;align=left;spacingLeft=2;overflow=hidden;fontSize=11;labelBackgroundColor=none;strokeColor=#457B9D;fontColor=#1D3557;" parent="IM9ix_mjp3S93p6cJgH1-235" vertex="1">
          <mxGeometry width="36" height="22" as="geometry">
            <mxRectangle width="36" height="22" as="alternateBounds" />
          </mxGeometry>
        </mxCell>
        <mxCell id="IM9ix_mjp3S93p6cJgH1-237" value="org_name" style="shape=partialRectangle;connectable=0;fillColor=none;top=0;left=0;bottom=0;right=0;align=left;spacingLeft=2;overflow=hidden;fontSize=11;labelBackgroundColor=none;strokeColor=#457B9D;fontColor=#1D3557;" parent="IM9ix_mjp3S93p6cJgH1-235" vertex="1">
          <mxGeometry x="36" width="106" height="22" as="geometry">
            <mxRectangle width="106" height="22" as="alternateBounds" />
          </mxGeometry>
        </mxCell>
        <mxCell id="IM9ix_mjp3S93p6cJgH1-238" value="" style="shape=partialRectangle;connectable=0;fillColor=none;top=0;left=0;bottom=0;right=0;align=left;spacingLeft=2;overflow=hidden;fontSize=11;labelBackgroundColor=none;strokeColor=#457B9D;fontColor=#1D3557;" parent="IM9ix_mjp3S93p6cJgH1-235" vertex="1">
          <mxGeometry x="142" width="22" height="22" as="geometry">
            <mxRectangle width="22" height="22" as="alternateBounds" />
          </mxGeometry>
        </mxCell>
        <mxCell id="IM9ix_mjp3S93p6cJgH1-239" style="shape=tableRow;horizontal=0;startSize=0;swimlaneHead=0;swimlaneBody=0;fillColor=none;collapsible=0;dropTarget=0;points=[[0,0.5],[1,0.5]];portConstraint=eastwest;top=0;left=0;right=0;bottom=0;labelBackgroundColor=none;strokeColor=#457B9D;fontColor=#1D3557;" parent="IM9ix_mjp3S93p6cJgH1-230" vertex="1">
          <mxGeometry y="69" width="164" height="22" as="geometry" />
        </mxCell>
        <mxCell id="IM9ix_mjp3S93p6cJgH1-240" value="string" style="shape=partialRectangle;connectable=0;fillColor=none;top=0;left=0;bottom=0;right=0;align=left;spacingLeft=2;overflow=hidden;fontSize=11;labelBackgroundColor=none;strokeColor=#457B9D;fontColor=#1D3557;" parent="IM9ix_mjp3S93p6cJgH1-239" vertex="1">
          <mxGeometry width="36" height="22" as="geometry">
            <mxRectangle width="36" height="22" as="alternateBounds" />
          </mxGeometry>
        </mxCell>
        <mxCell id="IM9ix_mjp3S93p6cJgH1-241" value="org_type" style="shape=partialRectangle;connectable=0;fillColor=none;top=0;left=0;bottom=0;right=0;align=left;spacingLeft=2;overflow=hidden;fontSize=11;labelBackgroundColor=none;strokeColor=#457B9D;fontColor=#1D3557;" parent="IM9ix_mjp3S93p6cJgH1-239" vertex="1">
          <mxGeometry x="36" width="106" height="22" as="geometry">
            <mxRectangle width="106" height="22" as="alternateBounds" />
          </mxGeometry>
        </mxCell>
        <mxCell id="IM9ix_mjp3S93p6cJgH1-242" value="" style="shape=partialRectangle;connectable=0;fillColor=none;top=0;left=0;bottom=0;right=0;align=left;spacingLeft=2;overflow=hidden;fontSize=11;labelBackgroundColor=none;strokeColor=#457B9D;fontColor=#1D3557;" parent="IM9ix_mjp3S93p6cJgH1-239" vertex="1">
          <mxGeometry x="142" width="22" height="22" as="geometry">
            <mxRectangle width="22" height="22" as="alternateBounds" />
          </mxGeometry>
        </mxCell>
        <mxCell id="IM9ix_mjp3S93p6cJgH1-243" style="shape=tableRow;horizontal=0;startSize=0;swimlaneHead=0;swimlaneBody=0;fillColor=none;collapsible=0;dropTarget=0;points=[[0,0.5],[1,0.5]];portConstraint=eastwest;top=0;left=0;right=0;bottom=0;labelBackgroundColor=none;strokeColor=#457B9D;fontColor=#1D3557;" parent="IM9ix_mjp3S93p6cJgH1-230" vertex="1">
          <mxGeometry y="91" width="164" height="22" as="geometry" />
        </mxCell>
        <mxCell id="IM9ix_mjp3S93p6cJgH1-244" value="string" style="shape=partialRectangle;connectable=0;fillColor=none;top=0;left=0;bottom=0;right=0;align=left;spacingLeft=2;overflow=hidden;fontSize=11;labelBackgroundColor=none;strokeColor=#457B9D;fontColor=#1D3557;" parent="IM9ix_mjp3S93p6cJgH1-243" vertex="1">
          <mxGeometry width="36" height="22" as="geometry">
            <mxRectangle width="36" height="22" as="alternateBounds" />
          </mxGeometry>
        </mxCell>
        <mxCell id="IM9ix_mjp3S93p6cJgH1-245" value="contact_info" style="shape=partialRectangle;connectable=0;fillColor=none;top=0;left=0;bottom=0;right=0;align=left;spacingLeft=2;overflow=hidden;fontSize=11;labelBackgroundColor=none;strokeColor=#457B9D;fontColor=#1D3557;" parent="IM9ix_mjp3S93p6cJgH1-243" vertex="1">
          <mxGeometry x="36" width="106" height="22" as="geometry">
            <mxRectangle width="106" height="22" as="alternateBounds" />
          </mxGeometry>
        </mxCell>
        <mxCell id="IM9ix_mjp3S93p6cJgH1-246" value="" style="shape=partialRectangle;connectable=0;fillColor=none;top=0;left=0;bottom=0;right=0;align=left;spacingLeft=2;overflow=hidden;fontSize=11;labelBackgroundColor=none;strokeColor=#457B9D;fontColor=#1D3557;" parent="IM9ix_mjp3S93p6cJgH1-243" vertex="1">
          <mxGeometry x="142" width="22" height="22" as="geometry">
            <mxRectangle width="22" height="22" as="alternateBounds" />
          </mxGeometry>
        </mxCell>
        <mxCell id="IM9ix_mjp3S93p6cJgH1-247" value="RESEARCHGROUPS" style="shape=table;startSize=25;container=1;collapsible=0;childLayout=tableLayout;fixedRows=1;rowLines=1;fontStyle=1;align=center;resizeLast=1;labelBackgroundColor=none;fillColor=#A8DADC;strokeColor=#457B9D;fontColor=#1D3557;" parent="1" vertex="1">
          <mxGeometry x="661" y="631" width="128" height="91" as="geometry" />
        </mxCell>
        <mxCell id="IM9ix_mjp3S93p6cJgH1-248" style="shape=tableRow;horizontal=0;startSize=0;swimlaneHead=0;swimlaneBody=0;fillColor=none;collapsible=0;dropTarget=0;points=[[0,0.5],[1,0.5]];portConstraint=eastwest;top=0;left=0;right=0;bottom=0;labelBackgroundColor=none;strokeColor=#457B9D;fontColor=#1D3557;" parent="IM9ix_mjp3S93p6cJgH1-247" vertex="1">
          <mxGeometry y="25" width="128" height="22" as="geometry" />
        </mxCell>
        <mxCell id="IM9ix_mjp3S93p6cJgH1-249" value="int" style="shape=partialRectangle;connectable=0;fillColor=none;top=0;left=0;bottom=0;right=0;align=left;spacingLeft=2;overflow=hidden;fontSize=11;labelBackgroundColor=none;strokeColor=#457B9D;fontColor=#1D3557;" parent="IM9ix_mjp3S93p6cJgH1-248" vertex="1">
          <mxGeometry width="36" height="22" as="geometry">
            <mxRectangle width="36" height="22" as="alternateBounds" />
          </mxGeometry>
        </mxCell>
        <mxCell id="IM9ix_mjp3S93p6cJgH1-250" value="group_id" style="shape=partialRectangle;connectable=0;fillColor=none;top=0;left=0;bottom=0;right=0;align=left;spacingLeft=2;overflow=hidden;fontSize=11;labelBackgroundColor=none;strokeColor=#457B9D;fontColor=#1D3557;" parent="IM9ix_mjp3S93p6cJgH1-248" vertex="1">
          <mxGeometry x="36" width="70" height="22" as="geometry">
            <mxRectangle width="70" height="22" as="alternateBounds" />
          </mxGeometry>
        </mxCell>
        <mxCell id="IM9ix_mjp3S93p6cJgH1-251" value="PK" style="shape=partialRectangle;connectable=0;fillColor=none;top=0;left=0;bottom=0;right=0;align=left;spacingLeft=2;overflow=hidden;fontSize=11;labelBackgroundColor=none;strokeColor=#457B9D;fontColor=#1D3557;" parent="IM9ix_mjp3S93p6cJgH1-248" vertex="1">
          <mxGeometry x="106" width="22" height="22" as="geometry">
            <mxRectangle width="22" height="22" as="alternateBounds" />
          </mxGeometry>
        </mxCell>
        <mxCell id="IM9ix_mjp3S93p6cJgH1-252" style="shape=tableRow;horizontal=0;startSize=0;swimlaneHead=0;swimlaneBody=0;fillColor=none;collapsible=0;dropTarget=0;points=[[0,0.5],[1,0.5]];portConstraint=eastwest;top=0;left=0;right=0;bottom=0;labelBackgroundColor=none;strokeColor=#457B9D;fontColor=#1D3557;" parent="IM9ix_mjp3S93p6cJgH1-247" vertex="1">
          <mxGeometry y="47" width="128" height="22" as="geometry" />
        </mxCell>
        <mxCell id="IM9ix_mjp3S93p6cJgH1-253" value="string" style="shape=partialRectangle;connectable=0;fillColor=none;top=0;left=0;bottom=0;right=0;align=left;spacingLeft=2;overflow=hidden;fontSize=11;labelBackgroundColor=none;strokeColor=#457B9D;fontColor=#1D3557;" parent="IM9ix_mjp3S93p6cJgH1-252" vertex="1">
          <mxGeometry width="36" height="22" as="geometry">
            <mxRectangle width="36" height="22" as="alternateBounds" />
          </mxGeometry>
        </mxCell>
        <mxCell id="IM9ix_mjp3S93p6cJgH1-254" value="group_name" style="shape=partialRectangle;connectable=0;fillColor=none;top=0;left=0;bottom=0;right=0;align=left;spacingLeft=2;overflow=hidden;fontSize=11;labelBackgroundColor=none;strokeColor=#457B9D;fontColor=#1D3557;" parent="IM9ix_mjp3S93p6cJgH1-252" vertex="1">
          <mxGeometry x="36" width="70" height="22" as="geometry">
            <mxRectangle width="70" height="22" as="alternateBounds" />
          </mxGeometry>
        </mxCell>
        <mxCell id="IM9ix_mjp3S93p6cJgH1-255" value="" style="shape=partialRectangle;connectable=0;fillColor=none;top=0;left=0;bottom=0;right=0;align=left;spacingLeft=2;overflow=hidden;fontSize=11;labelBackgroundColor=none;strokeColor=#457B9D;fontColor=#1D3557;" parent="IM9ix_mjp3S93p6cJgH1-252" vertex="1">
          <mxGeometry x="106" width="22" height="22" as="geometry">
            <mxRectangle width="22" height="22" as="alternateBounds" />
          </mxGeometry>
        </mxCell>
        <mxCell id="IM9ix_mjp3S93p6cJgH1-256" style="shape=tableRow;horizontal=0;startSize=0;swimlaneHead=0;swimlaneBody=0;fillColor=none;collapsible=0;dropTarget=0;points=[[0,0.5],[1,0.5]];portConstraint=eastwest;top=0;left=0;right=0;bottom=0;labelBackgroundColor=none;strokeColor=#457B9D;fontColor=#1D3557;" parent="IM9ix_mjp3S93p6cJgH1-247" vertex="1">
          <mxGeometry y="69" width="128" height="22" as="geometry" />
        </mxCell>
        <mxCell id="IM9ix_mjp3S93p6cJgH1-257" value="string" style="shape=partialRectangle;connectable=0;fillColor=none;top=0;left=0;bottom=0;right=0;align=left;spacingLeft=2;overflow=hidden;fontSize=11;labelBackgroundColor=none;strokeColor=#457B9D;fontColor=#1D3557;" parent="IM9ix_mjp3S93p6cJgH1-256" vertex="1">
          <mxGeometry width="36" height="22" as="geometry">
            <mxRectangle width="36" height="22" as="alternateBounds" />
          </mxGeometry>
        </mxCell>
        <mxCell id="IM9ix_mjp3S93p6cJgH1-258" value="description" style="shape=partialRectangle;connectable=0;fillColor=none;top=0;left=0;bottom=0;right=0;align=left;spacingLeft=2;overflow=hidden;fontSize=11;labelBackgroundColor=none;strokeColor=#457B9D;fontColor=#1D3557;" parent="IM9ix_mjp3S93p6cJgH1-256" vertex="1">
          <mxGeometry x="36" width="70" height="22" as="geometry">
            <mxRectangle width="70" height="22" as="alternateBounds" />
          </mxGeometry>
        </mxCell>
        <mxCell id="IM9ix_mjp3S93p6cJgH1-259" value="" style="shape=partialRectangle;connectable=0;fillColor=none;top=0;left=0;bottom=0;right=0;align=left;spacingLeft=2;overflow=hidden;fontSize=11;labelBackgroundColor=none;strokeColor=#457B9D;fontColor=#1D3557;" parent="IM9ix_mjp3S93p6cJgH1-256" vertex="1">
          <mxGeometry x="106" width="22" height="22" as="geometry">
            <mxRectangle width="22" height="22" as="alternateBounds" />
          </mxGeometry>
        </mxCell>
        <mxCell id="IM9ix_mjp3S93p6cJgH1-260" value="COMMITTEES" style="shape=table;startSize=25;container=1;collapsible=0;childLayout=tableLayout;fixedRows=1;rowLines=1;fontStyle=1;align=center;resizeLast=1;labelBackgroundColor=none;fillColor=#A8DADC;strokeColor=#457B9D;fontColor=#1D3557;" parent="1" vertex="1">
          <mxGeometry x="890" y="631" width="150" height="91" as="geometry" />
        </mxCell>
        <mxCell id="IM9ix_mjp3S93p6cJgH1-261" style="shape=tableRow;horizontal=0;startSize=0;swimlaneHead=0;swimlaneBody=0;fillColor=none;collapsible=0;dropTarget=0;points=[[0,0.5],[1,0.5]];portConstraint=eastwest;top=0;left=0;right=0;bottom=0;labelBackgroundColor=none;strokeColor=#457B9D;fontColor=#1D3557;" parent="IM9ix_mjp3S93p6cJgH1-260" vertex="1">
          <mxGeometry y="25" width="150" height="22" as="geometry" />
        </mxCell>
        <mxCell id="IM9ix_mjp3S93p6cJgH1-262" value="int" style="shape=partialRectangle;connectable=0;fillColor=none;top=0;left=0;bottom=0;right=0;align=left;spacingLeft=2;overflow=hidden;fontSize=11;labelBackgroundColor=none;strokeColor=#457B9D;fontColor=#1D3557;" parent="IM9ix_mjp3S93p6cJgH1-261" vertex="1">
          <mxGeometry width="36" height="22" as="geometry">
            <mxRectangle width="36" height="22" as="alternateBounds" />
          </mxGeometry>
        </mxCell>
        <mxCell id="IM9ix_mjp3S93p6cJgH1-263" value="committee_id" style="shape=partialRectangle;connectable=0;fillColor=none;top=0;left=0;bottom=0;right=0;align=left;spacingLeft=2;overflow=hidden;fontSize=11;labelBackgroundColor=none;strokeColor=#457B9D;fontColor=#1D3557;" parent="IM9ix_mjp3S93p6cJgH1-261" vertex="1">
          <mxGeometry x="36" width="92" height="22" as="geometry">
            <mxRectangle width="92" height="22" as="alternateBounds" />
          </mxGeometry>
        </mxCell>
        <mxCell id="IM9ix_mjp3S93p6cJgH1-264" value="PK" style="shape=partialRectangle;connectable=0;fillColor=none;top=0;left=0;bottom=0;right=0;align=left;spacingLeft=2;overflow=hidden;fontSize=11;labelBackgroundColor=none;strokeColor=#457B9D;fontColor=#1D3557;" parent="IM9ix_mjp3S93p6cJgH1-261" vertex="1">
          <mxGeometry x="128" width="22" height="22" as="geometry">
            <mxRectangle width="22" height="22" as="alternateBounds" />
          </mxGeometry>
        </mxCell>
        <mxCell id="IM9ix_mjp3S93p6cJgH1-265" style="shape=tableRow;horizontal=0;startSize=0;swimlaneHead=0;swimlaneBody=0;fillColor=none;collapsible=0;dropTarget=0;points=[[0,0.5],[1,0.5]];portConstraint=eastwest;top=0;left=0;right=0;bottom=0;labelBackgroundColor=none;strokeColor=#457B9D;fontColor=#1D3557;" parent="IM9ix_mjp3S93p6cJgH1-260" vertex="1">
          <mxGeometry y="47" width="150" height="22" as="geometry" />
        </mxCell>
        <mxCell id="IM9ix_mjp3S93p6cJgH1-266" value="string" style="shape=partialRectangle;connectable=0;fillColor=none;top=0;left=0;bottom=0;right=0;align=left;spacingLeft=2;overflow=hidden;fontSize=11;labelBackgroundColor=none;strokeColor=#457B9D;fontColor=#1D3557;" parent="IM9ix_mjp3S93p6cJgH1-265" vertex="1">
          <mxGeometry width="36" height="22" as="geometry">
            <mxRectangle width="36" height="22" as="alternateBounds" />
          </mxGeometry>
        </mxCell>
        <mxCell id="IM9ix_mjp3S93p6cJgH1-267" value="committee_name" style="shape=partialRectangle;connectable=0;fillColor=none;top=0;left=0;bottom=0;right=0;align=left;spacingLeft=2;overflow=hidden;fontSize=11;labelBackgroundColor=none;strokeColor=#457B9D;fontColor=#1D3557;" parent="IM9ix_mjp3S93p6cJgH1-265" vertex="1">
          <mxGeometry x="36" width="92" height="22" as="geometry">
            <mxRectangle width="92" height="22" as="alternateBounds" />
          </mxGeometry>
        </mxCell>
        <mxCell id="IM9ix_mjp3S93p6cJgH1-268" value="" style="shape=partialRectangle;connectable=0;fillColor=none;top=0;left=0;bottom=0;right=0;align=left;spacingLeft=2;overflow=hidden;fontSize=11;labelBackgroundColor=none;strokeColor=#457B9D;fontColor=#1D3557;" parent="IM9ix_mjp3S93p6cJgH1-265" vertex="1">
          <mxGeometry x="128" width="22" height="22" as="geometry">
            <mxRectangle width="22" height="22" as="alternateBounds" />
          </mxGeometry>
        </mxCell>
        <mxCell id="IM9ix_mjp3S93p6cJgH1-269" style="shape=tableRow;horizontal=0;startSize=0;swimlaneHead=0;swimlaneBody=0;fillColor=none;collapsible=0;dropTarget=0;points=[[0,0.5],[1,0.5]];portConstraint=eastwest;top=0;left=0;right=0;bottom=0;labelBackgroundColor=none;strokeColor=#457B9D;fontColor=#1D3557;" parent="IM9ix_mjp3S93p6cJgH1-260" vertex="1">
          <mxGeometry y="69" width="150" height="22" as="geometry" />
        </mxCell>
        <mxCell id="IM9ix_mjp3S93p6cJgH1-270" value="string" style="shape=partialRectangle;connectable=0;fillColor=none;top=0;left=0;bottom=0;right=0;align=left;spacingLeft=2;overflow=hidden;fontSize=11;labelBackgroundColor=none;strokeColor=#457B9D;fontColor=#1D3557;" parent="IM9ix_mjp3S93p6cJgH1-269" vertex="1">
          <mxGeometry width="36" height="22" as="geometry">
            <mxRectangle width="36" height="22" as="alternateBounds" />
          </mxGeometry>
        </mxCell>
        <mxCell id="IM9ix_mjp3S93p6cJgH1-271" value="description" style="shape=partialRectangle;connectable=0;fillColor=none;top=0;left=0;bottom=0;right=0;align=left;spacingLeft=2;overflow=hidden;fontSize=11;labelBackgroundColor=none;strokeColor=#457B9D;fontColor=#1D3557;" parent="IM9ix_mjp3S93p6cJgH1-269" vertex="1">
          <mxGeometry x="36" width="92" height="22" as="geometry">
            <mxRectangle width="92" height="22" as="alternateBounds" />
          </mxGeometry>
        </mxCell>
        <mxCell id="IM9ix_mjp3S93p6cJgH1-272" value="" style="shape=partialRectangle;connectable=0;fillColor=none;top=0;left=0;bottom=0;right=0;align=left;spacingLeft=2;overflow=hidden;fontSize=11;labelBackgroundColor=none;strokeColor=#457B9D;fontColor=#1D3557;" parent="IM9ix_mjp3S93p6cJgH1-269" vertex="1">
          <mxGeometry x="128" width="22" height="22" as="geometry">
            <mxRectangle width="22" height="22" as="alternateBounds" />
          </mxGeometry>
        </mxCell>
        <mxCell id="IM9ix_mjp3S93p6cJgH1-295" value="enrolls in" style="curved=1;startArrow=ERzeroToMany;startSize=10;;endArrow=ERzeroToMany;endSize=10;;exitX=0.46;exitY=1;entryX=0;entryY=0.5;rounded=0;labelBackgroundColor=none;strokeColor=#457B9D;fontColor=default;entryDx=0;entryDy=0;" parent="1" source="IM9ix_mjp3S93p6cJgH1-1" target="bMNDO-XGfLZcoMeqDma7-2" edge="1">
          <mxGeometry relative="1" as="geometry">
            <Array as="points">
              <mxPoint x="156" y="848" />
            </Array>
          </mxGeometry>
        </mxCell>
        <mxCell id="IM9ix_mjp3S93p6cJgH1-296" value="has enrollment" style="curved=1;startArrow=ERzeroToMany;startSize=10;;endArrow=ERzeroToMany;endSize=10;;exitX=0.75;exitY=1;entryX=1;entryY=0.5;rounded=0;labelBackgroundColor=none;strokeColor=#457B9D;fontColor=default;entryDx=0;entryDy=0;" parent="1" source="IM9ix_mjp3S93p6cJgH1-122" target="bMNDO-XGfLZcoMeqDma7-2" edge="1">
          <mxGeometry x="0.0782" y="-45" relative="1" as="geometry">
            <Array as="points">
              <mxPoint x="1385" y="504" />
              <mxPoint x="1385" y="848" />
            </Array>
            <mxPoint as="offset" />
          </mxGeometry>
        </mxCell>
        <mxCell id="IM9ix_mjp3S93p6cJgH1-297" value="teaches" style="curved=1;startArrow=ERzeroToMany;startSize=10;;endArrow=ERzeroToMany;endSize=10;;exitX=0.92;exitY=0.68;entryX=0.301;entryY=0;rounded=0;labelBackgroundColor=none;strokeColor=#457B9D;fontColor=default;entryDx=0;entryDy=0;entryPerimeter=0;" parent="1" source="IM9ix_mjp3S93p6cJgH1-52" target="bMNDO-XGfLZcoMeqDma7-18" edge="1">
          <mxGeometry relative="1" as="geometry">
            <Array as="points">
              <mxPoint x="1134" y="504" />
            </Array>
          </mxGeometry>
        </mxCell>
        <mxCell id="IM9ix_mjp3S93p6cJgH1-298" value="taught by" style="curved=1;startArrow=ERzeroToMany;startSize=10;;endArrow=ERzeroToMany;endSize=10;;exitX=0.09;exitY=1;entryX=0.404;entryY=0;rounded=0;labelBackgroundColor=none;strokeColor=#457B9D;fontColor=default;entryDx=0;entryDy=0;entryPerimeter=0;" parent="1" source="IM9ix_mjp3S93p6cJgH1-122" target="bMNDO-XGfLZcoMeqDma7-18" edge="1">
          <mxGeometry relative="1" as="geometry">
            <Array as="points">
              <mxPoint x="1253" y="504" />
            </Array>
          </mxGeometry>
        </mxCell>
        <mxCell id="IM9ix_mjp3S93p6cJgH1-299" value="enrolls" style="curved=1;startArrow=ERmandOne;startSize=10;;endArrow=ERzeroToMany;endSize=10;;exitX=0.48;exitY=1;entryX=0.34;entryY=0;rounded=0;labelBackgroundColor=none;strokeColor=#457B9D;fontColor=default;" parent="1" source="IM9ix_mjp3S93p6cJgH1-176" target="IM9ix_mjp3S93p6cJgH1-1" edge="1">
          <mxGeometry relative="1" as="geometry">
            <Array as="points">
              <mxPoint x="106" y="504" />
            </Array>
          </mxGeometry>
        </mxCell>
        <mxCell id="IM9ix_mjp3S93p6cJgH1-300" value="has" style="curved=1;startArrow=ERmandOne;startSize=10;;endArrow=ERzeroToMany;endSize=10;;exitX=0.64;exitY=1;entryX=0.46;entryY=0;rounded=0;labelBackgroundColor=none;strokeColor=#457B9D;fontColor=default;" parent="1" source="IM9ix_mjp3S93p6cJgH1-159" target="IM9ix_mjp3S93p6cJgH1-52" edge="1">
          <mxGeometry relative="1" as="geometry">
            <Array as="points">
              <mxPoint x="767" y="182" />
            </Array>
          </mxGeometry>
        </mxCell>
        <mxCell id="IM9ix_mjp3S93p6cJgH1-301" value="employs" style="curved=1;startArrow=ERmandOne;startSize=10;;endArrow=ERzeroToMany;endSize=10;;exitX=0;exitY=0.69;entryX=0.5;entryY=0;rounded=0;labelBackgroundColor=none;strokeColor=#457B9D;fontColor=default;" parent="1" source="IM9ix_mjp3S93p6cJgH1-159" target="IM9ix_mjp3S93p6cJgH1-89" edge="1">
          <mxGeometry relative="1" as="geometry">
            <Array as="points">
              <mxPoint x="374" y="182" />
            </Array>
          </mxGeometry>
        </mxCell>
        <mxCell id="IM9ix_mjp3S93p6cJgH1-302" value="offers" style="curved=1;startArrow=ERmandOne;startSize=10;;endArrow=ERzeroToMany;endSize=10;;exitX=0.98;exitY=0.61;entryX=0.5;entryY=0;rounded=0;labelBackgroundColor=none;strokeColor=#457B9D;fontColor=default;" parent="1" source="IM9ix_mjp3S93p6cJgH1-159" target="IM9ix_mjp3S93p6cJgH1-122" edge="1">
          <mxGeometry relative="1" as="geometry">
            <Array as="points">
              <mxPoint x="1335" y="182" />
            </Array>
          </mxGeometry>
        </mxCell>
        <mxCell id="IM9ix_mjp3S93p6cJgH1-303" value="advises" style="curved=1;startArrow=ERmandOne;startSize=10;;endArrow=ERzeroToMany;endSize=10;;exitX=0;exitY=0.63;entryX=0.72;entryY=0;rounded=0;labelBackgroundColor=none;strokeColor=#457B9D;fontColor=default;" parent="1" source="IM9ix_mjp3S93p6cJgH1-52" target="IM9ix_mjp3S93p6cJgH1-1" edge="1">
          <mxGeometry relative="1" as="geometry">
            <Array as="points">
              <mxPoint x="266" y="504" />
            </Array>
          </mxGeometry>
        </mxCell>
        <mxCell id="IM9ix_mjp3S93p6cJgH1-304" value="leads" style="curved=1;startArrow=ERmandOne;startSize=10;;endArrow=ERzeroToMany;endSize=10;;exitX=0;exitY=0.73;entryX=0.45;entryY=0;rounded=0;labelBackgroundColor=none;strokeColor=#457B9D;fontColor=default;" parent="1" source="IM9ix_mjp3S93p6cJgH1-52" target="IM9ix_mjp3S93p6cJgH1-201" edge="1">
          <mxGeometry relative="1" as="geometry">
            <Array as="points">
              <mxPoint x="476" y="504" />
            </Array>
          </mxGeometry>
        </mxCell>
        <mxCell id="IM9ix_mjp3S93p6cJgH1-305" value="registered for" style="curved=1;startArrow=ERmandOne;startSize=10;;endArrow=ERzeroToMany;endSize=10;;exitX=0.91;exitY=0.57;entryX=0.5;entryY=0;rounded=0;labelBackgroundColor=none;strokeColor=#457B9D;fontColor=default;" parent="1" source="IM9ix_mjp3S93p6cJgH1-1" target="IM9ix_mjp3S93p6cJgH1-230" edge="1">
          <mxGeometry relative="1" as="geometry">
            <Array as="points">
              <mxPoint x="790" y="800" />
              <mxPoint x="950" y="840" />
            </Array>
          </mxGeometry>
        </mxCell>
        <mxCell id="IM9ix_mjp3S93p6cJgH1-306" value="heads" style="curved=1;startArrow=ERmandOne;startSize=10;;endArrow=ERmandOne;endSize=10;;exitX=0.32;exitY=1;entryX=0.5;entryY=0;rounded=0;labelBackgroundColor=none;strokeColor=#457B9D;fontColor=default;" parent="1" source="IM9ix_mjp3S93p6cJgH1-52" target="IM9ix_mjp3S93p6cJgH1-247" edge="1">
          <mxGeometry relative="1" as="geometry">
            <Array as="points">
              <mxPoint x="726" y="504" />
            </Array>
          </mxGeometry>
        </mxCell>
        <mxCell id="IM9ix_mjp3S93p6cJgH1-307" value="member of" style="curved=1;startArrow=ERmandOne;startSize=10;;endArrow=ERzeroToMany;endSize=10;;exitX=0.92;exitY=0.83;entryX=0.5;entryY=0;rounded=0;labelBackgroundColor=none;strokeColor=#457B9D;fontColor=default;" parent="1" source="IM9ix_mjp3S93p6cJgH1-52" target="IM9ix_mjp3S93p6cJgH1-260" edge="1">
          <mxGeometry relative="1" as="geometry">
            <Array as="points">
              <mxPoint x="965" y="504" />
            </Array>
          </mxGeometry>
        </mxCell>
        <mxCell id="bMNDO-XGfLZcoMeqDma7-1" value="STUDENTCOURSE" style="shape=table;startSize=25;container=1;collapsible=0;childLayout=tableLayout;fixedRows=1;rowLines=1;fontStyle=1;align=center;resizeLast=1;fillColor=#f8cecc;strokeColor=#b85450;" vertex="1" parent="1">
          <mxGeometry x="410" y="868" width="160" height="113" as="geometry" />
        </mxCell>
        <mxCell id="bMNDO-XGfLZcoMeqDma7-2" style="shape=tableRow;horizontal=0;startSize=0;swimlaneHead=0;swimlaneBody=0;fillColor=none;collapsible=0;dropTarget=0;points=[[0,0.5],[1,0.5]];portConstraint=eastwest;top=0;left=0;right=0;bottom=0;" vertex="1" parent="bMNDO-XGfLZcoMeqDma7-1">
          <mxGeometry y="25" width="160" height="22" as="geometry" />
        </mxCell>
        <mxCell id="bMNDO-XGfLZcoMeqDma7-3" value="int" style="shape=partialRectangle;connectable=0;fillColor=none;top=0;left=0;bottom=0;right=0;align=left;spacingLeft=2;overflow=hidden;fontSize=11;" vertex="1" parent="bMNDO-XGfLZcoMeqDma7-2">
          <mxGeometry width="36" height="22" as="geometry">
            <mxRectangle width="36" height="22" as="alternateBounds" />
          </mxGeometry>
        </mxCell>
        <mxCell id="bMNDO-XGfLZcoMeqDma7-4" value="student_course_id" style="shape=partialRectangle;connectable=0;fillColor=none;top=0;left=0;bottom=0;right=0;align=left;spacingLeft=2;overflow=hidden;fontSize=11;" vertex="1" parent="bMNDO-XGfLZcoMeqDma7-2">
          <mxGeometry x="36" width="102" height="22" as="geometry">
            <mxRectangle width="102" height="22" as="alternateBounds" />
          </mxGeometry>
        </mxCell>
        <mxCell id="bMNDO-XGfLZcoMeqDma7-5" value="PK" style="shape=partialRectangle;connectable=0;fillColor=none;top=0;left=0;bottom=0;right=0;align=left;spacingLeft=2;overflow=hidden;fontSize=11;" vertex="1" parent="bMNDO-XGfLZcoMeqDma7-2">
          <mxGeometry x="138" width="22" height="22" as="geometry">
            <mxRectangle width="22" height="22" as="alternateBounds" />
          </mxGeometry>
        </mxCell>
        <mxCell id="bMNDO-XGfLZcoMeqDma7-6" style="shape=tableRow;horizontal=0;startSize=0;swimlaneHead=0;swimlaneBody=0;fillColor=none;collapsible=0;dropTarget=0;points=[[0,0.5],[1,0.5]];portConstraint=eastwest;top=0;left=0;right=0;bottom=0;" vertex="1" parent="bMNDO-XGfLZcoMeqDma7-1">
          <mxGeometry y="47" width="160" height="22" as="geometry" />
        </mxCell>
        <mxCell id="bMNDO-XGfLZcoMeqDma7-7" value="int" style="shape=partialRectangle;connectable=0;fillColor=none;top=0;left=0;bottom=0;right=0;align=left;spacingLeft=2;overflow=hidden;fontSize=11;" vertex="1" parent="bMNDO-XGfLZcoMeqDma7-6">
          <mxGeometry width="36" height="22" as="geometry">
            <mxRectangle width="36" height="22" as="alternateBounds" />
          </mxGeometry>
        </mxCell>
        <mxCell id="bMNDO-XGfLZcoMeqDma7-8" value="student_id" style="shape=partialRectangle;connectable=0;fillColor=none;top=0;left=0;bottom=0;right=0;align=left;spacingLeft=2;overflow=hidden;fontSize=11;" vertex="1" parent="bMNDO-XGfLZcoMeqDma7-6">
          <mxGeometry x="36" width="102" height="22" as="geometry">
            <mxRectangle width="102" height="22" as="alternateBounds" />
          </mxGeometry>
        </mxCell>
        <mxCell id="bMNDO-XGfLZcoMeqDma7-9" value="FK" style="shape=partialRectangle;connectable=0;fillColor=none;top=0;left=0;bottom=0;right=0;align=left;spacingLeft=2;overflow=hidden;fontSize=11;" vertex="1" parent="bMNDO-XGfLZcoMeqDma7-6">
          <mxGeometry x="138" width="22" height="22" as="geometry">
            <mxRectangle width="22" height="22" as="alternateBounds" />
          </mxGeometry>
        </mxCell>
        <mxCell id="bMNDO-XGfLZcoMeqDma7-10" style="shape=tableRow;horizontal=0;startSize=0;swimlaneHead=0;swimlaneBody=0;fillColor=none;collapsible=0;dropTarget=0;points=[[0,0.5],[1,0.5]];portConstraint=eastwest;top=0;left=0;right=0;bottom=0;" vertex="1" parent="bMNDO-XGfLZcoMeqDma7-1">
          <mxGeometry y="69" width="160" height="22" as="geometry" />
        </mxCell>
        <mxCell id="bMNDO-XGfLZcoMeqDma7-11" value="string" style="shape=partialRectangle;connectable=0;fillColor=none;top=0;left=0;bottom=0;right=0;align=left;spacingLeft=2;overflow=hidden;fontSize=11;" vertex="1" parent="bMNDO-XGfLZcoMeqDma7-10">
          <mxGeometry width="36" height="22" as="geometry">
            <mxRectangle width="36" height="22" as="alternateBounds" />
          </mxGeometry>
        </mxCell>
        <mxCell id="bMNDO-XGfLZcoMeqDma7-12" value="course_code" style="shape=partialRectangle;connectable=0;fillColor=none;top=0;left=0;bottom=0;right=0;align=left;spacingLeft=2;overflow=hidden;fontSize=11;" vertex="1" parent="bMNDO-XGfLZcoMeqDma7-10">
          <mxGeometry x="36" width="102" height="22" as="geometry">
            <mxRectangle width="102" height="22" as="alternateBounds" />
          </mxGeometry>
        </mxCell>
        <mxCell id="bMNDO-XGfLZcoMeqDma7-13" value="FK" style="shape=partialRectangle;connectable=0;fillColor=none;top=0;left=0;bottom=0;right=0;align=left;spacingLeft=2;overflow=hidden;fontSize=11;" vertex="1" parent="bMNDO-XGfLZcoMeqDma7-10">
          <mxGeometry x="138" width="22" height="22" as="geometry">
            <mxRectangle width="22" height="22" as="alternateBounds" />
          </mxGeometry>
        </mxCell>
        <mxCell id="bMNDO-XGfLZcoMeqDma7-14" style="shape=tableRow;horizontal=0;startSize=0;swimlaneHead=0;swimlaneBody=0;fillColor=none;collapsible=0;dropTarget=0;points=[[0,0.5],[1,0.5]];portConstraint=eastwest;top=0;left=0;right=0;bottom=0;" vertex="1" parent="bMNDO-XGfLZcoMeqDma7-1">
          <mxGeometry y="91" width="160" height="22" as="geometry" />
        </mxCell>
        <mxCell id="bMNDO-XGfLZcoMeqDma7-15" value="string" style="shape=partialRectangle;connectable=0;fillColor=none;top=0;left=0;bottom=0;right=0;align=left;spacingLeft=2;overflow=hidden;fontSize=11;" vertex="1" parent="bMNDO-XGfLZcoMeqDma7-14">
          <mxGeometry width="36" height="22" as="geometry">
            <mxRectangle width="36" height="22" as="alternateBounds" />
          </mxGeometry>
        </mxCell>
        <mxCell id="bMNDO-XGfLZcoMeqDma7-16" value="semester" style="shape=partialRectangle;connectable=0;fillColor=none;top=0;left=0;bottom=0;right=0;align=left;spacingLeft=2;overflow=hidden;fontSize=11;" vertex="1" parent="bMNDO-XGfLZcoMeqDma7-14">
          <mxGeometry x="36" width="102" height="22" as="geometry">
            <mxRectangle width="102" height="22" as="alternateBounds" />
          </mxGeometry>
        </mxCell>
        <mxCell id="bMNDO-XGfLZcoMeqDma7-17" value="" style="shape=partialRectangle;connectable=0;fillColor=none;top=0;left=0;bottom=0;right=0;align=left;spacingLeft=2;overflow=hidden;fontSize=11;" vertex="1" parent="bMNDO-XGfLZcoMeqDma7-14">
          <mxGeometry x="138" width="22" height="22" as="geometry">
            <mxRectangle width="22" height="22" as="alternateBounds" />
          </mxGeometry>
        </mxCell>
        <mxCell id="bMNDO-XGfLZcoMeqDma7-18" value="LECTURERCOURSE" style="shape=table;startSize=25;container=1;collapsible=0;childLayout=tableLayout;fixedRows=1;rowLines=1;fontStyle=1;align=center;resizeLast=1;fillColor=#f8cecc;strokeColor=#b85450;" vertex="1" parent="1">
          <mxGeometry x="1105" y="640" width="166" height="91" as="geometry" />
        </mxCell>
        <mxCell id="bMNDO-XGfLZcoMeqDma7-19" style="shape=tableRow;horizontal=0;startSize=0;swimlaneHead=0;swimlaneBody=0;fillColor=none;collapsible=0;dropTarget=0;points=[[0,0.5],[1,0.5]];portConstraint=eastwest;top=0;left=0;right=0;bottom=0;" vertex="1" parent="bMNDO-XGfLZcoMeqDma7-18">
          <mxGeometry y="25" width="166" height="22" as="geometry" />
        </mxCell>
        <mxCell id="bMNDO-XGfLZcoMeqDma7-20" value="int" style="shape=partialRectangle;connectable=0;fillColor=none;top=0;left=0;bottom=0;right=0;align=left;spacingLeft=2;overflow=hidden;fontSize=11;" vertex="1" parent="bMNDO-XGfLZcoMeqDma7-19">
          <mxGeometry width="36" height="22" as="geometry">
            <mxRectangle width="36" height="22" as="alternateBounds" />
          </mxGeometry>
        </mxCell>
        <mxCell id="bMNDO-XGfLZcoMeqDma7-21" value="lecturer_course_id" style="shape=partialRectangle;connectable=0;fillColor=none;top=0;left=0;bottom=0;right=0;align=left;spacingLeft=2;overflow=hidden;fontSize=11;" vertex="1" parent="bMNDO-XGfLZcoMeqDma7-19">
          <mxGeometry x="36" width="108" height="22" as="geometry">
            <mxRectangle width="108" height="22" as="alternateBounds" />
          </mxGeometry>
        </mxCell>
        <mxCell id="bMNDO-XGfLZcoMeqDma7-22" value="PK" style="shape=partialRectangle;connectable=0;fillColor=none;top=0;left=0;bottom=0;right=0;align=left;spacingLeft=2;overflow=hidden;fontSize=11;" vertex="1" parent="bMNDO-XGfLZcoMeqDma7-19">
          <mxGeometry x="144" width="22" height="22" as="geometry">
            <mxRectangle width="22" height="22" as="alternateBounds" />
          </mxGeometry>
        </mxCell>
        <mxCell id="bMNDO-XGfLZcoMeqDma7-23" style="shape=tableRow;horizontal=0;startSize=0;swimlaneHead=0;swimlaneBody=0;fillColor=none;collapsible=0;dropTarget=0;points=[[0,0.5],[1,0.5]];portConstraint=eastwest;top=0;left=0;right=0;bottom=0;" vertex="1" parent="bMNDO-XGfLZcoMeqDma7-18">
          <mxGeometry y="47" width="166" height="22" as="geometry" />
        </mxCell>
        <mxCell id="bMNDO-XGfLZcoMeqDma7-24" value="int" style="shape=partialRectangle;connectable=0;fillColor=none;top=0;left=0;bottom=0;right=0;align=left;spacingLeft=2;overflow=hidden;fontSize=11;" vertex="1" parent="bMNDO-XGfLZcoMeqDma7-23">
          <mxGeometry width="36" height="22" as="geometry">
            <mxRectangle width="36" height="22" as="alternateBounds" />
          </mxGeometry>
        </mxCell>
        <mxCell id="bMNDO-XGfLZcoMeqDma7-25" value="lecturer_id" style="shape=partialRectangle;connectable=0;fillColor=none;top=0;left=0;bottom=0;right=0;align=left;spacingLeft=2;overflow=hidden;fontSize=11;" vertex="1" parent="bMNDO-XGfLZcoMeqDma7-23">
          <mxGeometry x="36" width="108" height="22" as="geometry">
            <mxRectangle width="108" height="22" as="alternateBounds" />
          </mxGeometry>
        </mxCell>
        <mxCell id="bMNDO-XGfLZcoMeqDma7-26" value="FK" style="shape=partialRectangle;connectable=0;fillColor=none;top=0;left=0;bottom=0;right=0;align=left;spacingLeft=2;overflow=hidden;fontSize=11;" vertex="1" parent="bMNDO-XGfLZcoMeqDma7-23">
          <mxGeometry x="144" width="22" height="22" as="geometry">
            <mxRectangle width="22" height="22" as="alternateBounds" />
          </mxGeometry>
        </mxCell>
        <mxCell id="bMNDO-XGfLZcoMeqDma7-27" style="shape=tableRow;horizontal=0;startSize=0;swimlaneHead=0;swimlaneBody=0;fillColor=none;collapsible=0;dropTarget=0;points=[[0,0.5],[1,0.5]];portConstraint=eastwest;top=0;left=0;right=0;bottom=0;" vertex="1" parent="bMNDO-XGfLZcoMeqDma7-18">
          <mxGeometry y="69" width="166" height="22" as="geometry" />
        </mxCell>
        <mxCell id="bMNDO-XGfLZcoMeqDma7-28" value="string" style="shape=partialRectangle;connectable=0;fillColor=none;top=0;left=0;bottom=0;right=0;align=left;spacingLeft=2;overflow=hidden;fontSize=11;" vertex="1" parent="bMNDO-XGfLZcoMeqDma7-27">
          <mxGeometry width="36" height="22" as="geometry">
            <mxRectangle width="36" height="22" as="alternateBounds" />
          </mxGeometry>
        </mxCell>
        <mxCell id="bMNDO-XGfLZcoMeqDma7-29" value="course_code" style="shape=partialRectangle;connectable=0;fillColor=none;top=0;left=0;bottom=0;right=0;align=left;spacingLeft=2;overflow=hidden;fontSize=11;" vertex="1" parent="bMNDO-XGfLZcoMeqDma7-27">
          <mxGeometry x="36" width="108" height="22" as="geometry">
            <mxRectangle width="108" height="22" as="alternateBounds" />
          </mxGeometry>
        </mxCell>
        <mxCell id="bMNDO-XGfLZcoMeqDma7-30" value="FK" style="shape=partialRectangle;connectable=0;fillColor=none;top=0;left=0;bottom=0;right=0;align=left;spacingLeft=2;overflow=hidden;fontSize=11;" vertex="1" parent="bMNDO-XGfLZcoMeqDma7-27">
          <mxGeometry x="144" width="22" height="22" as="geometry">
            <mxRectangle width="22" height="22" as="alternateBounds" />
          </mxGeometry>
        </mxCell>
      </root>
    </mxGraphModel>
  </diagram>
</mxfile>
